<svg width="25" height="21" viewBox="0 0 25 21" fill="none" xmlns="http://www.w3.org/2000/svg">
<path fill-rule="evenodd" clip-rule="evenodd" d="M8.75657 0.893744C7.94534 0.862288 7.21349 1.06602 6.60156 1.62879L8.75657 0.893744ZM13.8477 17.3489C14.8324 17.2675 15.6871 16.8935 16.4394 16.2734C15.5753 16.6317 14.7115 16.9903 13.8477 17.3489ZM11.287 20.417C7.78283 20.5601 4.76817 18.7698 2.29147 15.9424C0.596264 14.0073 0.223702 11.6515 0.457905 9.16006C0.73192 6.24394 2.11748 3.89258 4.26905 2.00986C6.34837 0.189808 8.78428 -0.438829 11.5055 0.30777C12.4325 0.562125 13.0063 1.20796 13.3976 2.04205C13.5126 2.28756 13.5762 2.57239 13.3536 2.79529C13.1415 3.00835 12.9466 2.78521 12.7448 2.72279C11.6294 2.37775 10.5837 2.71861 9.5643 3.10518C7.7123 3.80755 6.32306 5.08522 5.15302 6.66517C3.84046 8.43754 3.28161 10.4127 3.27989 12.5873C3.27915 13.6632 3.7424 14.4526 4.60155 15.0746C7.22178 16.9716 10.161 17.238 13.1717 16.539C16.2667 15.8205 18.841 14.1041 20.7358 11.5485C22.6789 8.92782 22.8441 6.11714 21.0742 3.30768C20.7743 2.8319 20.9272 2.37652 20.8898 1.91819C20.867 1.64049 21.143 1.49943 21.4742 1.53433C22.2068 1.61125 22.6787 2.0364 23.0825 2.60704C24.0043 3.91076 24.4683 5.38479 24.7256 6.93599C25.1881 9.72308 24.7376 12.3288 23.1454 14.6993C23.0358 14.8618 22.9409 15.0227 22.7359 15.1183C22.3961 15.2766 22.1715 15.5175 22.0397 15.9259C21.9353 16.2491 21.5713 16.5061 21.2867 16.7511C18.5321 19.1258 15.3832 20.4777 11.287 20.417Z" fill="#1C1C57"/>
</svg>
