<svg width="60" height="75" viewBox="0 0 60 75" fill="none" xmlns="http://www.w3.org/2000/svg">
<path d="M59.2076 30.1899C60.6746 27.2876 60.0672 23.8424 57.6959 21.617L54.362 18.4878C53.6171 17.7888 53.181 17.0333 52.9479 16.0385L51.9049 11.5866C51.1632 8.42026 48.4834 6.17161 45.2363 5.99095L40.6711 5.73711C39.6509 5.6804 38.8312 5.38203 38.0131 4.76984L34.3526 2.02984C31.7491 0.0811994 28.2509 0.0811994 25.6474 2.02984L21.9869 4.76969C21.1688 5.38203 20.3491 5.6804 19.3289 5.73711L14.7637 5.99095C11.5166 6.17161 8.83669 8.42026 8.09506 11.5866L7.05223 16.0385C6.81917 17.0333 6.38304 17.7888 5.63814 18.4878L2.30406 21.617C-0.0672018 23.8425 -0.67464 27.2876 0.792444 30.1899L2.85524 34.2706C3.31616 35.1825 3.46757 36.0416 3.34644 37.0561L2.80388 41.5961C2.41792 44.8251 4.16705 47.8547 7.15644 49.1351L10.5944 50.6075L3.56436 65.707C3.43049 65.9933 3.37789 66.3108 3.41229 66.625C3.44669 66.9391 3.56677 67.2377 3.75942 67.4882C3.95118 67.7395 4.20835 67.9331 4.5028 68.048C4.79724 68.1628 5.1176 68.1945 5.42883 68.1395L12.8138 66.8492L16.5805 73.3309C16.7387 73.6045 16.9691 73.8293 17.2465 73.9807C17.524 74.1321 17.8377 74.2042 18.1534 74.1892C18.4692 74.1755 18.7751 74.0752 19.0377 73.8993C19.3003 73.7234 19.5094 73.4787 19.6423 73.1919L26.2818 58.9308L28.5858 58.2346C29.5638 57.9392 30.4362 57.9392 31.4142 58.2346L33.7182 58.931L40.3577 73.1921C40.4962 73.4912 40.7176 73.7443 40.9956 73.9214C41.2736 74.0984 41.5966 74.1921 41.9262 74.1911C42.5412 74.1911 43.1079 73.8668 43.4194 73.3312L47.186 66.8493L54.571 68.1396C55.2079 68.2509 55.8475 68.0013 56.2406 67.4884C56.6337 66.9755 56.7083 66.2929 56.4356 65.7072L49.4059 50.6076L52.844 49.1354C55.8334 47.855 57.5825 44.8254 57.1966 41.5963L56.6539 37.0562C56.5327 36.0417 56.6841 35.1827 57.1451 34.2708L59.2076 30.1899ZM18.0118 71.0667L14.4518 64.9402C14.3298 64.7302 14.1464 64.5626 13.9262 64.4601C13.7061 64.3577 13.4598 64.3252 13.2206 64.367L6.24053 65.5865L12.6782 51.7588C12.9929 52.0388 13.2718 52.3643 13.5261 52.7533L16.0287 56.5799C17.6301 59.0286 20.4516 60.2419 23.2687 59.7755L18.0118 71.0667ZM46.7794 64.367C46.5402 64.3251 46.2939 64.3576 46.0738 64.4601C45.8536 64.5626 45.6702 64.7302 45.5482 64.9402L41.9882 71.0667L36.7312 59.7752C37.1295 59.8411 37.5279 59.8746 37.9229 59.8746C40.3215 59.8746 42.5962 58.6822 43.9711 56.5799L46.4738 52.7531C46.7281 52.3642 47.007 52.0387 47.3217 51.7587L53.7593 65.5863L46.7794 64.367ZM55.0251 33.1992C54.3587 34.5175 54.12 35.8712 54.2952 37.338L54.8379 41.878C55.1017 44.0851 53.9519 46.0766 51.9087 46.9517L47.7054 48.7518C46.3476 49.3332 45.2945 50.2169 44.4861 51.4532L41.9835 55.28C40.7668 57.1401 38.6059 57.9267 36.4782 57.2838L32.1013 55.961C31.3943 55.7474 30.6972 55.6405 30.0001 55.6405C29.303 55.6405 28.6057 55.7474 27.8988 55.961L23.5219 57.2838C21.3944 57.9266 19.2333 57.1403 18.0167 55.28L15.5141 51.4533C14.7058 50.2171 13.6527 49.3335 12.2946 48.7518L8.09149 46.9517C6.04815 46.0766 4.89829 44.085 5.16223 41.8779L5.70479 37.3378C5.88011 35.8712 5.64141 34.5174 4.97504 33.199L2.91224 29.1183C1.90949 27.1344 2.30881 24.8698 3.92954 23.3486L7.26362 20.2194C8.34058 19.2085 9.02789 18.018 9.36471 16.5798L10.4075 12.128C10.9145 9.96379 12.6762 8.48557 14.8956 8.36207L19.4609 8.10822C20.9357 8.02613 22.2275 7.55601 23.4101 6.67083L27.0707 3.93083C28.8501 2.59913 31.1498 2.59898 32.9293 3.93083L36.5899 6.67098C37.7725 7.55616 39.0643 8.02628 40.5391 8.10837L45.1044 8.36221C47.3238 8.48572 49.0854 9.96379 49.5923 12.1281L50.6353 16.58C50.9723 18.0183 51.6596 19.2088 52.7365 20.2196L56.0705 23.3488C57.6912 24.8701 58.0905 27.1346 57.0878 29.1184L55.0251 33.1992ZM29.9999 10.3088C19.0209 10.3088 10.0887 19.2409 10.0887 30.2199C10.0887 41.199 19.0208 50.1311 29.9999 50.1311C40.9791 50.1311 49.911 41.199 49.911 30.2199C49.9112 19.2409 40.9791 10.3088 29.9999 10.3088ZM29.9999 47.756C20.3305 47.756 12.4638 39.8893 12.4638 30.2199C12.4638 20.5505 20.3305 12.6839 29.9999 12.6839C39.6693 12.6839 47.5359 20.5506 47.5359 30.2199C47.5361 39.8893 39.6693 47.756 29.9999 47.756ZM34.3314 30.4761C35.7994 29.2398 36.7344 27.3899 36.7344 25.3249C36.7344 21.6115 33.7134 18.5905 30.0001 18.5905C26.2867 18.5905 23.2657 21.6115 23.2657 25.3249C23.2657 27.3898 24.2008 29.2397 25.6687 30.4761C21.5017 32.0573 18.4121 35.8612 17.912 40.5353C17.8943 40.701 17.9116 40.8685 17.9629 41.027C18.0142 41.1856 18.0982 41.3315 18.2096 41.4554C18.3209 41.5794 18.4571 41.6785 18.6093 41.7463C18.7614 41.8141 18.9262 41.8492 19.0928 41.8492H40.9072C41.0739 41.8493 41.2386 41.8143 41.3908 41.7464C41.543 41.6786 41.6792 41.5795 41.7906 41.4556C41.902 41.3317 41.986 41.1857 42.0372 41.0271C42.0885 40.8686 42.1058 40.701 42.088 40.5353C41.5879 35.8614 38.4983 32.0575 34.3314 30.4761ZM25.6408 25.3249C25.6408 22.9213 27.5963 20.9657 30.0001 20.9657C32.4039 20.9657 34.3593 22.9211 34.3593 25.3249C34.3593 27.7276 32.4053 29.6824 30.003 29.684H29.9971C27.5948 29.6825 25.6408 27.7276 25.6408 25.3249ZM20.5045 39.4741C21.5665 35.1668 25.4376 32.0606 29.997 32.0593L30.0001 32.0594L30.0032 32.0593C34.5624 32.0607 38.4335 35.167 39.4955 39.4741H20.5045Z" fill="url(#paint0_linear_551_846)"/>
<defs>
<linearGradient id="paint0_linear_551_846" x1="0" y1="37.6408" x2="66.5074" y2="37.6408" gradientUnits="userSpaceOnUse">
<stop stop-color="#8548DA"/>
<stop offset="0.375222" stop-color="#4C85F4"/>
<stop offset="0.651028" stop-color="#556BBB"/>
<stop offset="1" stop-color="#CC0F97"/>
</linearGradient>
</defs>
</svg>
