<svg width="60" height="61" viewBox="0 0 60 61" fill="none" xmlns="http://www.w3.org/2000/svg">
<path d="M33 6.56836H27C26.7348 6.56836 26.4804 6.463 26.2929 6.27547C26.1054 6.08793 26 5.83358 26 5.56836C26 5.30314 26.1054 5.04879 26.2929 4.86125C26.4804 4.67372 26.7348 4.56836 27 4.56836H33C33.2652 4.56836 33.5196 4.67372 33.7071 4.86125C33.8946 5.04879 34 5.30314 34 5.56836C34 5.83358 33.8946 6.08793 33.7071 6.27547C33.5196 6.463 33.2652 6.56836 33 6.56836ZM41 60.5684H19C17.6744 60.5668 16.4036 60.0395 15.4662 59.1021C14.5289 58.1648 14.0016 56.894 14 55.5684V21.5684C14 21.3031 14.1054 21.0488 14.2929 20.8613C14.4804 20.6737 14.7348 20.5684 15 20.5684C15.2652 20.5684 15.5196 20.6737 15.7071 20.8613C15.8946 21.0488 16 21.3031 16 21.5684V55.5684C16 57.2224 17.346 58.5684 19 58.5684H41C42.654 58.5684 44 57.2224 44 55.5684V21.5684C44 21.3031 44.1054 21.0488 44.2929 20.8613C44.4804 20.6737 44.7348 20.5684 45 20.5684C45.2652 20.5684 45.5196 20.6737 45.7071 20.8613C45.8946 21.0488 46 21.3031 46 21.5684V55.5684C46 58.3244 43.758 60.5684 41 60.5684Z" fill="url(#paint0_linear_551_472)"/>
<path d="M45 28.5684C44.7348 28.5684 44.4804 28.463 44.2929 28.2755C44.1054 28.0879 44 27.8336 44 27.5684V5.56836C44 3.91436 42.654 2.56836 41 2.56836H19C17.346 2.56836 16 3.91436 16 5.56836V27.5684C16 27.8336 15.8946 28.0879 15.7071 28.2755C15.5196 28.463 15.2652 28.5684 15 28.5684C14.7348 28.5684 14.4804 28.463 14.2929 28.2755C14.1054 28.0879 14 27.8336 14 27.5684V5.56836C14 2.81236 16.242 0.568359 19 0.568359H41C43.758 0.568359 46 2.81236 46 5.56836V27.5684C46 27.8336 45.8946 28.0879 45.7071 28.2755C45.5196 28.463 45.2652 28.5684 45 28.5684ZM51 10.6684C50.448 10.6684 50 10.3204 50 9.76836V9.56836C50 9.30314 50.1054 9.04879 50.2929 8.86125C50.4804 8.67372 50.7348 8.56836 51 8.56836C51.2652 8.56836 51.5196 8.67372 51.7071 8.86125C51.8946 9.04879 52 9.30314 52 9.56836C52 10.1204 51.552 10.6684 51 10.6684ZM51 14.6684C50.448 14.6684 50 14.3204 50 13.7684V13.5684C50 13.3031 50.1054 13.0488 50.2929 12.8613C50.4804 12.6737 50.7348 12.5684 51 12.5684C51.2652 12.5684 51.5196 12.6737 51.7071 12.8613C51.8946 13.0488 52 13.3031 52 13.5684C52 14.1204 51.552 14.6684 51 14.6684ZM51 18.6684C50.448 18.6684 50 18.3204 50 17.7684V17.5684C50 17.3031 50.1054 17.0488 50.2929 16.8613C50.4804 16.6737 50.7348 16.5684 51 16.5684C51.2652 16.5684 51.5196 16.6737 51.7071 16.8613C51.8946 17.0488 52 17.3031 52 17.5684C52 18.1204 51.552 18.6684 51 18.6684ZM9 44.4684C8.448 44.4684 8 44.1204 8 43.5684V43.3684C8 43.1031 8.10536 42.8488 8.29289 42.6613C8.48043 42.4737 8.73478 42.3684 9 42.3684C9.26522 42.3684 9.51957 42.4737 9.70711 42.6613C9.89464 42.8488 10 43.1031 10 43.3684C10 43.9204 9.552 44.4684 9 44.4684ZM9 48.4684C8.448 48.4684 8 48.1204 8 47.5684V47.3684C8 47.1031 8.10536 46.8488 8.29289 46.6613C8.48043 46.4737 8.73478 46.3684 9 46.3684C9.26522 46.3684 9.51957 46.4737 9.70711 46.6613C9.89464 46.8488 10 47.1031 10 47.3684C10 47.9204 9.552 48.4684 9 48.4684ZM9 52.4684C8.448 52.4684 8 52.1204 8 51.5684V51.3684C8 51.1031 8.10536 50.8488 8.29289 50.6613C8.48043 50.4737 8.73478 50.3684 9 50.3684C9.26522 50.3684 9.51957 50.4737 9.70711 50.6613C9.89464 50.8488 10 51.1031 10 51.3684C10 51.9204 9.552 52.4684 9 52.4684Z" fill="url(#paint1_linear_551_472)"/>
<path d="M47.682 52.5684C47.5328 52.5684 47.3855 52.5351 47.2509 52.4708C47.1163 52.4065 46.9977 52.313 46.904 52.197C46.8102 52.0809 46.7436 51.9454 46.709 51.8003C46.6744 51.6552 46.6727 51.5042 46.704 51.3584L47.364 48.2984C47.4034 48.1146 47.4939 47.9457 47.6252 47.8112C47.7565 47.6767 47.9232 47.5821 48.106 47.5384C49.071 47.3017 49.9934 46.9165 50.84 46.3964C50.9996 46.2989 51.1834 46.2482 51.3704 46.25C51.5575 46.2517 51.7402 46.3059 51.898 46.4064L53.878 47.6724L55.104 46.4364L53.838 44.4724C53.7364 44.3144 53.6812 44.1311 53.6787 43.9434C53.6762 43.7556 53.7266 43.5709 53.824 43.4104C54.3443 42.5641 54.729 41.6416 54.964 40.6764C55.008 40.4941 55.1021 40.3279 55.2357 40.1964C55.3693 40.0649 55.5371 39.9734 55.72 39.9324L58 39.4264V37.7124L55.722 37.2064C55.5391 37.1653 55.3713 37.0738 55.2377 36.9423C55.1041 36.8109 55.01 36.6446 54.966 36.4624C54.7301 35.4974 54.3455 34.575 53.826 33.7284C53.7278 33.5685 53.6768 33.3842 53.6789 33.1966C53.681 33.0091 53.7362 32.8259 53.838 32.6684L55.106 30.6864L53.882 29.4624L51.9 30.7304C51.7424 30.8312 51.5596 30.8857 51.3724 30.8875C51.1853 30.8892 51.0015 30.8383 50.842 30.7404C49.995 30.2209 49.0728 29.8357 48.108 29.5984C47.9252 29.5546 47.7585 29.46 47.6272 29.3255C47.4959 29.191 47.4054 29.0221 47.366 28.8384L46.874 26.5684H46C45.7348 26.5684 45.4804 26.463 45.2929 26.2755C45.1054 26.0879 45 25.8336 45 25.5684C45 25.3031 45.1054 25.0488 45.2929 24.8613C45.4804 24.6737 45.7348 24.5684 46 24.5684H47.68C47.9085 24.5687 48.1299 24.6473 48.3074 24.7911C48.485 24.9348 48.608 25.135 48.656 25.3584L49.19 27.8244C49.922 28.0464 50.64 28.3464 51.332 28.7204L53.48 27.3464C53.6721 27.2236 53.9003 27.1702 54.127 27.1949C54.3536 27.2197 54.5649 27.3211 54.726 27.4824L57.088 29.8424C57.249 30.0037 57.35 30.2152 57.3744 30.4418C57.3988 30.6684 57.345 30.8965 57.222 31.0884L55.848 33.2364C56.222 33.9304 56.522 34.6484 56.744 35.3824L59.214 35.9304C59.674 36.0324 60 36.4404 60 36.9084V40.2284C59.9999 40.456 59.9222 40.6768 59.7796 40.8542C59.6371 41.0317 59.4382 41.1552 59.216 41.2044L56.746 41.7524C56.5203 42.4954 56.2201 43.2137 55.85 43.8964L57.222 46.0244C57.3462 46.2156 57.4011 46.4436 57.3774 46.6704C57.3538 46.8971 57.253 47.1089 57.092 47.2704L54.73 49.6504C54.5688 49.8121 54.3573 49.914 54.1303 49.9391C53.9033 49.9642 53.6746 49.911 53.482 49.7884L51.334 48.4144C50.6517 48.7837 49.9341 49.0839 49.192 49.3104L48.658 51.7764C48.6101 51.9999 48.4872 52.2004 48.3096 52.3444C48.1321 52.4885 47.9106 52.5675 47.682 52.5684Z" fill="url(#paint2_linear_551_472)"/>
<path d="M48.7821 43.7246C48.568 43.7243 48.3596 43.6552 48.1877 43.5275C48.0157 43.3998 47.8893 43.2203 47.8271 43.0154C47.7648 42.8104 47.77 42.591 47.8418 42.3892C47.9137 42.1875 48.0484 42.0141 48.2261 41.8946C48.9937 41.3774 49.5584 40.6101 49.824 39.7234C50.0897 38.8368 50.0399 37.8854 49.6832 37.0313C49.3265 36.1772 48.6849 35.473 47.8676 35.0386C47.0502 34.6042 46.1076 34.4664 45.2001 34.6486C45.0714 34.675 44.9388 34.6758 44.8098 34.651C44.6808 34.6261 44.558 34.5761 44.4483 34.5037C44.3386 34.4314 44.2443 34.3382 44.1706 34.2294C44.097 34.1206 44.0455 33.9983 44.0191 33.8696C43.9927 33.741 43.9919 33.6083 44.0168 33.4793C44.0417 33.3503 44.0917 33.2275 44.164 33.1178C44.2364 33.0081 44.3296 32.9138 44.4384 32.8402C44.5472 32.7665 44.6694 32.715 44.7981 32.6886C45.6699 32.5119 46.5701 32.5309 47.4337 32.7443C48.2973 32.9578 49.1027 33.3603 49.7918 33.9229C50.4808 34.4855 51.0364 35.1941 51.4183 35.9975C51.8002 36.8009 51.9989 37.6791 52.0001 38.5686C52.0003 39.5545 51.7576 40.5252 51.2932 41.3949C50.8289 42.2645 50.1574 43.0063 49.3381 43.5546C49.1738 43.6652 48.9802 43.7244 48.7821 43.7246ZM14.0001 28.5686C12.711 28.5704 11.4556 28.1567 10.42 27.3889C9.38443 26.6212 8.62376 25.5402 8.25073 24.3062C7.87771 23.0722 7.91218 21.7509 8.34905 20.538C8.78591 19.3252 9.60192 18.2854 10.6761 17.5726C10.8968 17.4349 11.1625 17.3885 11.4167 17.4434C11.671 17.4983 11.8939 17.6501 12.0381 17.8667C12.1823 18.0832 12.2364 18.3474 12.189 18.6032C12.1416 18.8589 11.9963 19.0862 11.7841 19.2366C11.0166 19.7519 10.4509 20.5169 10.1833 21.4018C9.91561 22.2867 9.96241 23.237 10.3157 24.0913C10.669 24.9456 11.3071 25.6513 12.1216 26.0887C12.9361 26.526 13.8768 26.6681 14.7841 26.4906C15.0442 26.4393 15.314 26.493 15.5347 26.6398C15.7554 26.7867 15.9091 27.0149 15.9621 27.2746C15.9881 27.4034 15.9883 27.5359 15.9629 27.6647C15.9376 27.7936 15.887 27.9161 15.8142 28.0253C15.7413 28.1346 15.6477 28.2284 15.5385 28.3014C15.4294 28.3744 15.3069 28.4251 15.1781 28.4506C14.7904 28.5296 14.3958 28.5691 14.0001 28.5686Z" fill="url(#paint3_linear_551_472)"/>
<path d="M14 36.5682H12.32C12.0915 36.5678 11.8701 36.4892 11.6925 36.3455C11.515 36.2017 11.392 36.0015 11.344 35.7782L10.81 33.3122C10.0678 33.0861 9.35016 32.7859 8.668 32.4162L6.52 33.7902C6.32791 33.9129 6.09966 33.9664 5.87305 33.9416C5.64644 33.9169 5.43509 33.8155 5.274 33.6542L2.912 31.2942C2.75102 31.1329 2.64998 30.9214 2.62561 30.6948C2.60124 30.4682 2.65501 30.2401 2.778 30.0482L4.152 27.9002C3.78225 27.2167 3.48208 26.4977 3.256 25.7542L0.786 25.2062C0.56322 25.157 0.363893 25.0333 0.220974 24.8554C0.0780544 24.6776 0.000100556 24.4563 0 24.2282V20.9082C8.95417e-05 20.6806 0.0778312 20.4598 0.22038 20.2823C0.362928 20.1049 0.561752 19.9814 0.784 19.9322L3.254 19.3842C3.476 18.6502 3.776 17.9322 4.15 17.2402L2.78 15.1102C2.65578 14.919 2.60091 14.691 2.62458 14.4642C2.64824 14.2374 2.74899 14.0256 2.91 13.8642L5.272 11.4842C5.43258 11.3214 5.64427 11.2189 5.87152 11.1938C6.09876 11.1686 6.32774 11.2225 6.52 11.3462L8.668 12.7202C9.35032 12.3508 10.0679 12.0507 10.81 11.8242L11.344 9.35819C11.3682 9.22648 11.4187 9.10098 11.4923 8.98913C11.5659 8.87728 11.6613 8.78137 11.7727 8.70707C11.8841 8.63278 12.0093 8.58162 12.1409 8.55663C12.2725 8.53164 12.4077 8.53333 12.5386 8.5616C12.6695 8.58987 12.7934 8.64414 12.9029 8.7212C13.0124 8.79825 13.1054 8.89652 13.1762 9.01018C13.247 9.12383 13.2943 9.25056 13.3152 9.38283C13.3361 9.5151 13.3303 9.65022 13.298 9.78019L12.638 12.8402C12.5986 13.024 12.5081 13.1929 12.3768 13.3274C12.2455 13.4618 12.0788 13.5564 11.896 13.6002C10.9305 13.8372 10.0075 14.2224 9.16 14.7422C9.00036 14.8396 8.81659 14.8903 8.62957 14.8886C8.44255 14.8868 8.25977 14.8326 8.102 14.7322L6.122 13.4662L4.894 14.7022L6.16 16.6662C6.26252 16.8238 6.31825 17.0072 6.32073 17.1952C6.32321 17.3831 6.27233 17.568 6.174 17.7282C5.65368 18.5745 5.26902 19.497 5.034 20.4622C4.99001 20.6444 4.89588 20.8107 4.76227 20.9422C4.62866 21.0737 4.46091 21.1651 4.278 21.2062L2 21.7102V23.4242L4.278 23.9302C4.46091 23.9713 4.62866 24.0627 4.76227 24.1942C4.89588 24.3257 4.99001 24.492 5.034 24.6742C5.26 25.6182 5.646 26.5382 6.174 27.4082C6.374 27.7342 6.37 28.1462 6.162 28.4682L4.894 30.4482L6.118 31.6722L8.1 30.4042C8.25794 30.3042 8.44065 30.2503 8.62758 30.2485C8.8145 30.2467 8.9982 30.2972 9.158 30.3942C10.03 30.9242 10.95 31.3082 11.892 31.5362C12.0748 31.5799 12.2415 31.6745 12.3728 31.809C12.5041 31.9435 12.5946 32.1124 12.634 32.2962L13.126 34.5682H14C14.2652 34.5682 14.5196 34.6735 14.7071 34.8611C14.8946 35.0486 15 35.303 15 35.5682C15 35.8334 14.8946 36.0878 14.7071 36.2753C14.5196 36.4628 14.2652 36.5682 14 36.5682ZM29 35.5682C28.848 35.5685 28.6979 35.5341 28.5612 35.4676C28.4245 35.4011 28.3047 35.3043 28.2112 35.1845C28.1176 35.0647 28.0526 34.9251 28.0212 34.7763C27.9898 34.6276 27.9928 34.4736 28.03 34.3262L30.03 26.3262C30.0608 26.1983 30.1168 26.0778 30.1947 25.9717C30.2726 25.8657 30.3708 25.7761 30.4836 25.7084C30.5963 25.6406 30.7215 25.596 30.8517 25.5771C30.9819 25.5582 31.1146 25.5653 31.242 25.5982C31.3695 25.6298 31.4895 25.6862 31.5952 25.7642C31.7008 25.8423 31.79 25.9404 31.8576 26.053C31.9253 26.1656 31.97 26.2905 31.9893 26.4204C32.0086 26.5503 32.002 26.6828 31.97 26.8102L29.97 34.8102C29.9167 35.027 29.792 35.2195 29.6161 35.357C29.4402 35.4944 29.2232 35.5688 29 35.5682ZM35 35.5682C34.8024 35.5681 34.6092 35.5095 34.4448 35.3998C34.2805 35.29 34.1523 35.134 34.0766 34.9515C34.0008 34.769 33.9809 34.5681 34.0192 34.3742C34.0575 34.1803 34.1525 34.0022 34.292 33.8622L37.586 30.5682L34.294 27.2762C34.1118 27.0876 34.011 26.835 34.0133 26.5728C34.0156 26.3106 34.1208 26.0598 34.3062 25.8744C34.4916 25.689 34.7424 25.5838 35.0046 25.5815C35.2668 25.5792 35.5194 25.68 35.708 25.8622L39.708 29.8622C39.8955 30.0497 40.0008 30.304 40.0008 30.5692C40.0008 30.8344 39.8955 31.0887 39.708 31.2762L35.708 35.2762C35.5199 35.4632 35.2653 35.5682 35 35.5682ZM25 35.5682C24.7347 35.5682 24.4801 35.4632 24.292 35.2762L20.292 31.2762C20.1045 31.0887 19.9992 30.8344 19.9992 30.5692C19.9992 30.304 20.1045 30.0497 20.292 29.8622L24.292 25.8622C24.4806 25.68 24.7332 25.5792 24.9954 25.5815C25.2576 25.5838 25.5084 25.689 25.6938 25.8744C25.8792 26.0598 25.9844 26.3106 25.9867 26.5728C25.989 26.835 25.8882 27.0876 25.706 27.2762L22.414 30.5682L25.706 33.8602C25.8461 33.9999 25.9416 34.1781 25.9804 34.3721C26.0192 34.5661 25.9995 34.7673 25.924 34.9502C25.8484 35.1331 25.7202 35.2894 25.5558 35.3994C25.3913 35.5094 25.1979 35.5681 25 35.5682Z" fill="url(#paint4_linear_551_472)"/>
<defs>
<linearGradient id="paint0_linear_551_472" x1="14" y1="32.7669" x2="49.4706" y2="32.7669" gradientUnits="userSpaceOnUse">
<stop stop-color="#8548DA"/>
<stop offset="0.375222" stop-color="#4C85F4"/>
<stop offset="0.651028" stop-color="#556BBB"/>
<stop offset="1" stop-color="#CC0F97"/>
</linearGradient>
<linearGradient id="paint1_linear_551_472" x1="8" y1="26.7024" x2="56.7721" y2="26.7024" gradientUnits="userSpaceOnUse">
<stop stop-color="#8548DA"/>
<stop offset="0.375222" stop-color="#4C85F4"/>
<stop offset="0.651028" stop-color="#556BBB"/>
<stop offset="1" stop-color="#CC0F97"/>
</linearGradient>
<linearGradient id="paint2_linear_551_472" x1="45" y1="38.6677" x2="61.6269" y2="38.6677" gradientUnits="userSpaceOnUse">
<stop stop-color="#8548DA"/>
<stop offset="0.375222" stop-color="#4C85F4"/>
<stop offset="0.651028" stop-color="#556BBB"/>
<stop offset="1" stop-color="#CC0F97"/>
</linearGradient>
<linearGradient id="paint3_linear_551_472" x1="7.99414" y1="30.666" x2="56.7729" y2="30.666" gradientUnits="userSpaceOnUse">
<stop stop-color="#8548DA"/>
<stop offset="0.375222" stop-color="#4C85F4"/>
<stop offset="0.651028" stop-color="#556BBB"/>
<stop offset="1" stop-color="#CC0F97"/>
</linearGradient>
<linearGradient id="paint4_linear_551_472" x1="0" y1="22.653" x2="44.3391" y2="22.653" gradientUnits="userSpaceOnUse">
<stop stop-color="#8548DA"/>
<stop offset="0.375222" stop-color="#4C85F4"/>
<stop offset="0.651028" stop-color="#556BBB"/>
<stop offset="1" stop-color="#CC0F97"/>
</linearGradient>
</defs>
</svg>
