<svg width="60" height="61" viewBox="0 0 60 61" fill="none" xmlns="http://www.w3.org/2000/svg">
<path d="M52.377 37.8171C53.1334 35.4823 53.5176 33.0472 53.5176 30.5658C53.5176 28.0937 53.1363 25.6673 52.3844 23.3399C54.0378 22.719 55.5412 21.7248 56.7893 20.4029C58.9464 18.1195 60.0848 15.1321 59.9951 11.9923C59.8092 5.51003 54.3849 0.388426 47.9017 0.5734C44.7613 0.663191 41.8446 1.97044 39.6874 4.25436C38.5981 5.40782 37.7693 6.74073 37.2267 8.1822C34.8987 7.43081 32.4725 7.04937 29.9994 7.04937C27.5248 7.04937 25.0967 7.43175 22.7674 8.18407C21.0874 3.73836 16.7878 0.568359 11.761 0.568359C5.27587 0.568359 0 5.84423 0 12.3289C0 17.3552 3.17047 21.6544 7.61618 23.3339C6.86339 25.6637 6.48148 28.0919 6.48148 30.5658C6.48148 33.0472 6.86562 35.4823 7.62204 37.8171C3.17316 39.4952 0 43.7962 0 48.8248C0 50.595 0.383663 52.297 1.14056 53.8831C1.19027 53.9874 1.26002 54.0808 1.34584 54.158C1.43165 54.2353 1.53185 54.2949 1.6407 54.3334C1.74956 54.372 1.86494 54.3887 1.98025 54.3826C2.09556 54.3766 2.20855 54.3478 2.31276 54.2981C2.52311 54.1976 2.68494 54.0176 2.76275 53.7979C2.84055 53.5781 2.82795 53.3364 2.72773 53.1259C2.0843 51.7779 1.75831 50.3309 1.75831 48.8248C1.75831 43.31 6.24564 38.8231 11.761 38.8231C17.2768 38.8231 21.7641 43.31 21.7641 48.8248C21.7641 54.3401 17.2768 58.827 11.761 58.827C9.24543 58.827 6.84088 57.8898 4.99102 56.1877C4.6335 55.859 4.07705 55.8823 3.74872 56.2395C3.67053 56.3245 3.60985 56.424 3.57014 56.5324C3.53043 56.6408 3.51246 56.756 3.51727 56.8713C3.52209 56.9867 3.54958 57.1 3.59818 57.2047C3.64678 57.3094 3.71554 57.4036 3.80053 57.4817C5.97591 59.4832 8.80304 60.5854 11.761 60.5854C16.795 60.5854 21.1002 57.4057 22.7747 52.95C25.1013 53.701 27.5272 54.0823 29.9994 54.0823C32.472 54.0823 34.8984 53.701 37.2248 52.9504C38.8996 57.4063 43.2046 60.5854 48.2387 60.5854C54.7238 60.5854 59.9996 55.3095 59.9996 48.8248C59.9996 43.7962 56.8265 39.4948 52.377 37.8171ZM40.9659 5.46139C42.8002 3.51904 45.2815 2.40732 47.9524 2.33077C48.0492 2.32803 48.146 2.32666 48.2428 2.32667C53.6267 2.32667 58.0824 6.62679 58.2371 12.0423C58.3137 14.7127 57.3457 17.2531 55.5114 19.1959C53.677 21.1382 51.1957 22.2501 48.5248 22.3265C48.428 22.3293 48.3312 22.3306 48.2344 22.3306C42.8505 22.3306 38.3948 18.0306 38.2401 12.6151C38.1631 9.94461 39.1315 7.40385 40.9659 5.46139ZM36.7317 51.2617C34.5655 51.966 32.3049 52.324 29.9994 52.324C27.6948 52.324 25.4342 51.966 23.2678 51.2617C23.4372 50.4605 23.5225 49.6437 23.5224 48.8247C23.5224 42.3401 18.2461 37.0648 11.761 37.0648C10.9207 37.0648 10.1011 37.154 9.31037 37.3221C8.60013 35.148 8.23979 32.8792 8.23979 30.5658C8.23979 28.2599 8.59837 25.9983 9.30392 23.8298C10.1116 24.0023 10.9351 24.0892 11.761 24.0889C13.7758 24.0889 15.7635 23.5706 17.5103 22.5903C17.9335 22.3527 18.084 21.817 17.8464 21.3934C17.6088 20.9699 17.073 20.8196 16.6496 21.0572C15.165 21.8902 13.4744 22.3306 11.761 22.3306C6.24517 22.3306 1.75831 17.8438 1.75831 12.3284C1.75831 6.81353 6.24564 2.32667 11.761 2.32667C17.2768 2.32667 21.7641 6.81353 21.7641 12.3289C21.7641 14.6363 20.9596 16.8872 19.499 18.6679C19.1907 19.043 19.2458 19.597 19.6212 19.9052C19.8015 20.053 20.0331 20.1231 20.2651 20.1002C20.4971 20.0773 20.7105 19.9632 20.8584 19.7829C22.576 17.689 23.5224 15.0414 23.5224 12.3284C23.5224 11.4864 23.4322 10.6645 23.2633 9.87181C25.4314 9.16615 27.6934 8.80768 29.9994 8.80768C32.3049 8.80768 34.5659 9.16579 36.7331 9.87041C36.5393 10.7889 36.4551 11.7271 36.4822 12.6654C36.6649 19.0333 41.9032 24.0894 48.234 24.0889C49.0612 24.089 49.8862 24.0028 50.6956 23.8316C51.4008 25.9993 51.7594 28.2608 51.7594 30.566C51.7594 32.8792 51.3986 35.1481 50.6888 37.3221C49.8834 37.1507 49.0621 37.0644 48.2387 37.0648C41.7534 37.0648 36.4777 42.3402 36.4777 48.8248C36.4777 49.6605 36.5656 50.4755 36.7317 51.2617ZM48.2387 58.827C42.7228 58.827 38.236 54.3402 38.236 48.8253C38.236 43.31 42.7228 38.8231 48.2387 38.8231C53.7544 38.8231 58.2413 43.31 58.2413 48.8253C58.2413 54.3402 53.7544 58.827 48.2387 58.827Z" fill="url(#paint0_linear_551_525)"/>
<path d="M17.7479 7.13882C17.5999 7.03813 17.4248 6.98501 17.2458 6.98656C17.0669 6.98811 16.8926 7.04425 16.7465 7.14749C16.4479 7.35797 16.127 7.53472 15.7895 7.67452C14.5816 6.72937 12.8311 6.74039 11.6319 7.78306C11.0133 8.32013 10.6193 9.07023 10.5283 9.88436C9.88442 9.78857 9.26684 9.56263 8.71319 9.22032C8.15953 8.87802 7.68141 8.42652 7.30797 7.89337C7.21843 7.76625 7.09683 7.66509 6.95553 7.6002C6.81423 7.5353 6.65826 7.50897 6.50349 7.52389C6.3486 7.53889 6.20047 7.59474 6.07422 7.68573C5.94798 7.77671 5.84815 7.89958 5.78493 8.04177C5.75984 8.09851 5.16823 9.45018 5.24372 11.1046C5.30151 12.3706 5.75433 14.0026 7.40597 15.2627C6.80942 15.4558 6.1835 15.5423 5.55693 15.5182C5.35943 15.5106 5.16511 15.5697 5.00533 15.686C4.84555 15.8024 4.72961 15.9692 4.67623 16.1595C4.62285 16.3498 4.63514 16.5525 4.71111 16.735C4.78708 16.9174 4.9223 17.069 5.09496 17.1652C6.47418 17.9313 7.95175 18.3151 9.39544 18.3151C10.7824 18.3151 12.1378 17.9606 13.3439 17.2513C14.8563 16.3616 15.9552 14.9995 16.5519 13.3359C16.5706 13.2937 16.5862 13.2499 16.5987 13.2045C16.9054 12.3011 17.0661 11.3115 17.0661 10.262C17.0661 10.2163 17.0647 10.17 17.063 10.1242C17.5659 9.53124 17.9237 8.82918 18.1079 8.07377C18.15 7.89982 18.1382 7.71715 18.0739 7.55011C18.0096 7.38307 17.8959 7.2396 17.748 7.13882H17.7479ZM15.2807 9.98775C15.2982 10.0794 15.3073 10.1741 15.3073 10.2649C15.3073 11.1266 15.1791 11.9247 14.9351 12.6458C14.9217 12.6793 14.9106 12.7135 14.9016 12.7484C14.4452 14.026 13.6141 15.0522 12.4524 15.7358C11.3892 16.3617 10.169 16.6282 8.92527 16.5379C9.21026 16.3969 9.48531 16.2366 9.74851 16.0581C9.87816 15.97 9.98192 15.8488 10.0491 15.7071C10.1162 15.5655 10.1443 15.4084 10.1304 15.2522C10.1165 15.0961 10.061 14.9464 9.9698 14.8189C9.87858 14.6914 9.7549 14.5905 9.61159 14.5269C7.97004 13.7974 7.09229 12.6372 7.00297 11.079C6.98665 10.7766 6.9974 10.4733 7.03508 10.1728C8.24433 11.1833 9.7934 11.7347 11.4102 11.693C11.6394 11.6871 11.8572 11.592 12.0173 11.4278C12.1773 11.2637 12.2669 11.0435 12.267 10.8143V10.269C12.2638 10.0497 12.3085 9.83229 12.3981 9.63209C12.4877 9.43189 12.62 9.2537 12.7857 9.11C13.414 8.56375 14.3691 8.6301 14.9154 9.2584C15.0227 9.38165 15.1622 9.47251 15.3184 9.52074C15.264 9.67019 15.2511 9.83155 15.2809 9.98775H15.2807ZM45.3461 13.0218H46.5925V18.2642C46.5925 18.4974 46.6851 18.721 46.85 18.8859C47.0149 19.0508 47.2385 19.1434 47.4716 19.1434C47.7048 19.1434 47.9284 19.0508 48.0933 18.8859C48.2582 18.721 48.3508 18.4974 48.3508 18.2642V13.0218H49.7085C50.1937 13.0218 50.5876 12.6279 50.5876 12.1426C50.5876 11.6573 50.1937 11.2635 49.7085 11.2635H48.3508V8.80371C48.3508 7.95936 49.0381 7.27198 49.8829 7.27198H51.0211C51.5066 7.27198 51.9002 6.87824 51.9002 6.39283C51.9002 6.15966 51.8076 5.93604 51.6427 5.77117C51.4779 5.6063 51.2543 5.51367 51.0211 5.51367H49.8829C48.0687 5.51367 46.5925 6.98948 46.5925 8.80371V11.2635H45.3461C44.8608 11.2635 44.4669 11.6573 44.4669 12.1426C44.4669 12.6279 44.8608 13.0218 45.3461 13.0218ZM9.7668 53.3712C9.97615 53.3712 10.1853 53.3173 10.3717 53.2097L16.3559 49.7531C16.5396 49.6467 16.6922 49.4939 16.7983 49.3101C16.9044 49.1262 16.9605 48.9177 16.9607 48.7054C16.9607 48.275 16.7291 47.8735 16.3559 47.6583L10.3718 44.2015C10.1879 44.0956 9.97934 44.0398 9.76709 44.0398C9.55483 44.0398 9.34631 44.0956 9.16241 44.2015C8.97863 44.3079 8.826 44.4607 8.71977 44.6445C8.61354 44.8284 8.55744 45.0369 8.55708 45.2493V52.1621C8.55708 52.5929 8.78918 52.9945 9.16241 53.2097C9.3461 53.3159 9.5546 53.3717 9.7668 53.3714V53.3712ZM10.3154 46.1998L14.6544 48.706L10.3154 51.2119V46.1998ZM52.0593 42.5981H44.4189C43.0919 42.5981 42.0121 43.6777 42.0121 45.0052V52.6442C42.0121 53.9717 43.0918 55.0514 44.4189 55.0514H52.0593C53.3863 55.0514 54.4659 53.9717 54.4659 52.6442V45.0052C54.4659 43.6778 53.3863 42.5981 52.0593 42.5981ZM52.7075 52.6442C52.7075 52.8162 52.6392 52.9811 52.5177 53.1028C52.3961 53.2244 52.2313 53.2928 52.0593 53.2931H44.4189C44.2469 53.2929 44.082 53.2245 43.9604 53.1028C43.8388 52.9812 43.7705 52.8162 43.7704 52.6442V45.0052C43.7706 44.8332 43.8389 44.6684 43.9605 44.5467C44.0821 44.4251 44.2469 44.3566 44.4189 44.3564H52.0593C52.2312 44.3567 52.396 44.4252 52.5175 44.5468C52.6391 44.6684 52.7074 44.8333 52.7075 45.0052V52.6442Z" fill="url(#paint1_linear_551_525)"/>
<path d="M48.2384 46.168C46.7731 46.168 45.5808 47.3603 45.5808 48.8256C45.5808 50.2908 46.7731 51.4827 48.2384 51.4827C49.7037 51.4827 50.8959 50.2908 50.8959 48.8256C50.8959 47.3603 49.7037 46.168 48.2384 46.168ZM48.2384 49.7244C47.7426 49.7244 47.3391 49.321 47.3391 48.8256C47.3391 48.3297 47.7424 47.9263 48.2384 47.9263C48.7344 47.9263 49.1376 48.3296 49.1376 48.8256C49.1376 49.321 48.7342 49.7244 48.2384 49.7244ZM36.3619 21.4449C36.1288 21.4449 35.9052 21.5376 35.7403 21.7024C35.5754 21.8673 35.4828 22.0909 35.4828 22.3241V22.7183C34.2428 23.4494 32.9446 24.0772 31.6016 24.5952C30.5252 25.0092 29.4227 25.3517 28.3011 25.6205C28.1237 25.4829 27.9057 25.4082 27.6812 25.4079H23.6558C22.6833 25.4079 21.8926 26.1992 21.8926 27.1713V31.7883C21.8926 32.7608 22.6833 33.5516 23.6559 33.5516H24.4604L24.7653 39.4136C24.7713 39.5289 24.8 39.6418 24.8497 39.746C24.8993 39.8502 24.9691 39.9436 25.0548 40.0209C25.1406 40.0981 25.2408 40.1577 25.3496 40.1963C25.4584 40.2348 25.5737 40.2515 25.689 40.2455C25.9218 40.2334 26.1403 40.1293 26.2964 39.9561C26.4524 39.7829 26.5333 39.5549 26.5213 39.322L26.221 33.5516H27.6812C27.9143 33.5516 28.129 33.4719 28.3008 33.3396C29.0145 33.5116 29.7207 33.7134 30.4176 33.9444C30.5272 33.9808 30.6428 33.9952 30.758 33.9868C30.8731 33.9785 30.9855 33.9475 31.0887 33.8957C31.1919 33.844 31.2839 33.7724 31.3594 33.685C31.4349 33.5977 31.4925 33.4963 31.5289 33.3867C31.5652 33.2772 31.5796 33.1615 31.5713 33.0463C31.5629 32.9312 31.532 32.8188 31.4802 32.7156C31.4284 32.6124 31.3568 32.5204 31.2695 32.4449C31.1821 32.3694 31.0808 32.3118 30.9712 32.2754C30.2228 32.0273 29.4643 31.8106 28.6977 31.6261V27.3343C29.8992 27.0465 31.0804 26.6795 32.2336 26.2359C33.3473 25.8064 34.4325 25.3062 35.4824 24.7384V34.2232C35.0971 34.015 34.7069 33.8159 34.3121 33.6262C34.2081 33.5761 34.0952 33.547 33.9799 33.5405C33.8647 33.5341 33.7493 33.5504 33.6403 33.5886C33.5313 33.6268 33.431 33.6861 33.345 33.7631C33.2589 33.8401 33.1889 33.9333 33.139 34.0374C33.0889 34.1414 33.0598 34.2543 33.0534 34.3696C33.047 34.4849 33.0633 34.6003 33.1015 34.7093C33.1397 34.8183 33.199 34.9187 33.2759 35.0047C33.3529 35.0908 33.4461 35.1608 33.5502 35.2109C34.2082 35.5283 34.8528 35.8726 35.4824 36.243V36.6355C35.4824 36.8686 35.5751 37.0922 35.7399 37.2571C35.9048 37.422 36.1284 37.5146 36.3616 37.5146C36.5948 37.5146 36.8184 37.422 36.9833 37.2571C37.1481 37.0922 37.2408 36.8686 37.2408 36.6355V22.324C37.2408 22.2085 37.2181 22.0942 37.174 21.9876C37.1299 21.8809 37.0652 21.784 36.9836 21.7024C36.902 21.6207 36.8051 21.5559 36.6984 21.5118C36.5918 21.4676 36.4775 21.4448 36.3621 21.4448L36.3619 21.4449ZM26.9399 31.7928L23.6509 31.7883L23.6559 27.1662H26.9399V31.7928Z" fill="url(#paint2_linear_551_525)"/>
<defs>
<linearGradient id="paint0_linear_551_525" x1="0" y1="30.7897" x2="66.5074" y2="30.7897" gradientUnits="userSpaceOnUse">
<stop stop-color="#8548DA"/>
<stop offset="0.375222" stop-color="#4C85F4"/>
<stop offset="0.651028" stop-color="#556BBB"/>
<stop offset="1" stop-color="#CC0F97"/>
</linearGradient>
<linearGradient id="paint1_linear_551_525" x1="4.64355" y1="30.4582" x2="59.8694" y2="30.4582" gradientUnits="userSpaceOnUse">
<stop stop-color="#8548DA"/>
<stop offset="0.375222" stop-color="#4C85F4"/>
<stop offset="0.651028" stop-color="#556BBB"/>
<stop offset="1" stop-color="#CC0F97"/>
</linearGradient>
<linearGradient id="paint2_linear_551_525" x1="21.8926" y1="36.5703" x2="54.0415" y2="36.5703" gradientUnits="userSpaceOnUse">
<stop stop-color="#8548DA"/>
<stop offset="0.375222" stop-color="#4C85F4"/>
<stop offset="0.651028" stop-color="#556BBB"/>
<stop offset="1" stop-color="#CC0F97"/>
</linearGradient>
</defs>
</svg>
