<svg width="29" height="28" viewBox="0 0 29 28" fill="none" xmlns="http://www.w3.org/2000/svg">
<path fill-rule="evenodd" clip-rule="evenodd" d="M17.26 25.2807C17.3162 25.1286 17.1435 24.9919 17.2766 24.8642C17.4383 24.7085 17.3741 24.499 17.4296 24.3188C17.4901 24.1221 17.5228 23.9172 17.5712 23.7166C17.7275 23.0706 18.1509 22.5144 18.2052 21.8326C18.2093 21.7789 18.2632 21.7294 18.2926 21.6774C18.5572 21.2042 18.6135 20.6389 18.9475 20.1964C19.0458 19.5585 19.4833 19.0559 19.6468 18.4394C19.7088 18.2054 19.8851 18.0103 19.9457 17.7507C20.0054 17.4971 20.2264 17.3048 20.2744 17.0095C20.3222 16.7131 20.6155 16.5143 20.6756 16.168C20.7282 15.8646 20.9727 15.5927 21.0922 15.2759C21.2353 14.8971 21.5194 14.5828 21.6458 14.1747C21.7472 13.8473 22.0186 13.592 22.1062 13.2287C22.1691 12.968 22.3689 12.7248 22.5525 12.5127C22.7453 12.29 22.6819 11.9804 22.8698 11.7636C22.9749 11.6426 23.0471 11.4931 23.1341 11.3564C23.2321 11.2026 23.3165 11.0375 23.4319 10.8983C23.5324 10.7773 23.5214 10.5311 23.5895 10.5179C23.8879 10.4593 23.6792 10.2122 23.7895 10.0779C24.0066 9.81371 24.1236 9.45691 24.3661 9.22709C24.6272 8.97974 24.4582 8.5416 24.819 8.37675C24.9112 8.06209 25.1104 7.80603 25.2801 7.53377C25.3977 7.34442 25.5208 7.15854 25.6382 6.96926C25.7563 6.77866 25.8671 6.58278 26.0605 6.4541C25.9909 6.20395 26.3065 6.09917 26.2856 5.86679C26.1834 5.84396 26.0452 5.96133 25.9941 5.76941C25.937 5.55604 25.7879 5.5013 25.5828 5.56362C25.5092 5.58595 25.4293 5.62016 25.3602 5.55427C25.2193 5.48755 25.543 5.15881 25.1695 5.22121C25.2257 5.37537 25.1489 5.51643 25.1503 5.6624C25.1114 5.65376 25.075 5.64277 25.0379 5.63793C24.572 5.5778 24.2382 5.44638 23.8473 5.16762C23.4575 5.2514 23.4575 5.2514 23.2437 5.46806C23.097 5.45495 22.9933 5.27904 22.8225 5.35685C22.8188 5.33702 22.8151 5.31749 22.811 5.29643L22.958 5.06552C22.6843 5.25804 22.6027 5.03219 22.4295 5.02786C22.3701 5.10078 22.3091 5.17535 22.248 5.25028C22.1336 5.24564 22.0247 5.21912 21.9079 5.22034C21.7049 5.22245 21.5005 5.16869 21.2988 5.12774C21.2187 5.11162 21.3108 4.9139 21.1356 4.96359C21.0268 4.9947 20.9185 4.92946 20.7956 4.94478C20.5155 4.97969 20.2337 4.88854 19.9583 4.87412C19.7056 4.86095 19.5505 4.65675 19.3077 4.66576C18.7008 4.68844 18.1427 4.4594 17.5594 4.35233C17.5867 4.23489 17.6035 4.16187 17.62 4.09072C17.3945 4.0528 17.2779 4.28325 17.076 4.28318C16.7706 4.12914 16.5903 4.086 16.2476 4.07312C16.2235 4.07202 16.2011 4.01789 16.1778 3.98852C16.1635 3.82798 16.3423 3.86917 16.4013 3.77065C16.3573 3.70325 16.3046 3.65359 16.2117 3.68164C16.132 3.79364 16.053 3.90482 15.962 4.03239L15.4246 3.69025C15.2505 3.69274 15.1206 3.81748 14.9676 3.69208C14.9193 3.66663 14.9985 3.53974 14.8818 3.53416C14.8367 3.57648 14.7987 3.6427 14.7533 3.64811C14.6533 3.6603 13.1803 3.26186 13.1196 3.22319C13.1079 3.21546 13.1021 3.19802 13.0933 3.18479C13.1105 3.1122 13.1272 3.03937 13.1452 2.96306C12.9626 2.95145 12.9991 3.20569 12.8314 3.19612C12.8088 3.05387 12.9281 2.90097 12.7986 2.76568C12.7128 2.8083 12.5908 2.76418 12.5218 2.89623C12.5224 2.94841 12.523 3.02013 12.524 3.094C12.2891 3.08899 12.214 2.84218 12.0449 2.76912C11.8456 2.68291 11.6182 2.62246 11.4213 2.63743C11.3061 2.69724 11.3223 2.83944 11.1979 2.85962C11.1271 2.79816 11.1696 2.66054 10.9636 2.62425C10.9607 2.62506 10.8804 2.64369 10.8111 2.68231C10.7383 2.72287 10.8477 2.87392 10.7812 2.85219C10.586 2.78816 10.5333 2.93644 10.411 3.00364C10.2559 3.08878 10.1432 3.18805 10.0938 3.32885C10.0402 3.48154 9.82216 3.46906 9.82411 3.70258C9.82577 3.87223 9.64548 4.05869 9.5162 4.21236C9.13874 4.66121 8.98483 5.22835 8.72554 5.73606C8.58694 6.00772 8.47882 6.3062 8.30712 6.56552C8.11397 6.85768 8.13828 6.86101 8.05284 7.16705C8.01898 7.28871 8.13316 7.45179 7.96184 7.54116C7.72513 7.66475 7.79174 7.97934 7.60053 8.13481C7.56292 8.84178 7.1251 9.41657 6.96126 10.0757C6.88679 10.3744 6.65249 10.5889 6.61986 10.8688C6.56547 11.3365 6.28596 11.7212 6.20204 12.1643C6.14388 12.471 5.89522 12.6848 5.85372 12.9575C5.76077 13.568 5.36307 14.0718 5.30389 14.6853C5.06681 14.9381 5.06722 15.2977 4.89214 15.5877C4.72017 15.8727 4.69127 16.2415 4.53674 16.541C4.45933 16.6913 4.55064 16.8517 4.42417 16.986C4.31838 17.0986 4.18963 17.2626 4.19957 17.3939C4.21471 17.5901 4.1078 17.6991 4.0208 17.82C3.9216 17.9571 4.02395 18.128 3.89804 18.2598C3.63297 18.5371 3.68795 18.9803 3.40417 19.2534C3.43541 19.5621 3.14829 19.7437 3.09223 19.9974C3.02559 20.3009 2.84586 20.5255 2.72221 20.7882C2.57874 21.0932 2.43949 21.4136 2.61814 21.7631C2.76396 21.681 2.86607 21.7729 2.95065 21.8484C3.34546 22.2 3.86688 22.3057 4.31889 22.5454C4.51175 22.6476 4.77272 22.6747 4.94096 22.8326C5.14422 23.023 5.4224 22.9721 5.63987 23.1153C5.94407 23.3161 6.29935 23.411 6.65019 23.5099C6.92733 23.588 7.12331 23.8621 7.44748 23.8481C7.50778 23.8455 7.4405 24.0014 7.54689 24.0145C7.60947 23.9647 7.66792 23.9182 7.72855 23.8698C7.74916 23.9379 7.76847 24.0416 7.78187 24.0409C8.10317 24.0227 8.36775 24.1861 8.65505 24.2832C8.75993 24.3185 8.87374 24.2638 8.91909 24.4267C8.95746 24.5661 9.11957 24.4941 9.20294 24.5096C9.78236 24.6185 10.3487 24.7679 10.8761 25.0274C11.0537 25.1148 11.1839 25.0299 11.3359 25.0215C11.3403 25.0407 11.3414 25.062 11.3495 25.0798C11.3686 25.1221 11.3396 25.1975 11.4434 25.1761C11.6321 25.1369 11.7917 25.3262 12.0073 25.2325C12.196 25.1503 12.322 25.491 12.5486 25.3676C13.183 25.6338 13.8656 25.6644 14.5328 25.7512C15.3173 25.853 16.104 25.9841 16.7271 25.9252C17.1673 25.7822 16.9365 25.3776 17.26 25.2807ZM19.2652 24.8934C19.2209 25.227 19.3253 25.5722 18.9284 25.7188C18.8514 25.7475 18.9265 25.8151 18.9191 25.8641C18.8515 26.3081 18.572 26.6475 18.3578 27.0209C18.2499 27.2087 18.0579 27.2496 17.9005 27.3499C17.783 27.4252 17.7318 27.3484 17.7256 27.2311C17.6012 27.2899 17.4753 27.1416 17.3615 27.2248C17.2839 27.3048 17.3197 27.3826 17.3363 27.4595C17.2457 27.5548 17.174 27.4056 17.0768 27.4441C16.9161 27.5077 16.8362 27.3232 16.7063 27.2944C16.4079 27.2283 16.1098 26.9902 15.8005 27.2855C15.7578 27.326 15.6531 27.3564 15.5674 27.2872C15.4223 27.2113 15.6005 27.1202 15.5682 27.0328C15.5622 26.9919 15.523 26.9726 15.485 27.0112C15.1917 27.3086 15.1932 27.3101 14.7487 27.0847C14.6898 27.1304 14.6305 27.1762 14.5822 27.2139C14.3903 27.209 14.4725 27.0069 14.3633 26.9521C13.5592 26.9642 13.3021 27.0521 12.4711 26.5257C12.4801 26.5871 12.488 26.6419 12.4962 26.6968C12.3944 26.693 12.2295 26.874 12.2137 26.602C12.0644 26.6 11.9127 26.6125 11.7656 26.5924C11.4314 26.5463 11.1171 26.4564 11.0065 26.0871C10.8131 26.1067 10.7072 26.3286 10.5095 26.2278C10.4121 26.1902 10.4469 26.0894 10.3841 25.9934C10.2391 25.9825 10.0704 25.8944 9.89585 26.034C9.79016 26.1187 9.71501 26.0034 9.63588 25.9576C9.54911 25.9071 9.608 25.7556 9.47791 25.7209C9.12756 25.7515 8.75194 25.8385 8.52636 25.4864C8.37298 25.5206 8.20969 25.5567 8.04646 25.593C7.81932 25.4455 7.70049 25.2296 7.43522 25.2565C7.24449 25.2759 7.11004 24.9525 6.84899 25.0508C6.6038 24.798 6.22224 24.8378 5.95303 24.6281C5.59492 24.3488 5.18544 24.1785 4.73457 24.1105C4.69766 24.105 4.65711 24.091 4.62873 24.068C4.17759 23.6991 3.5816 23.6079 3.11236 23.2608C2.78528 23.0187 2.4545 22.763 2.0217 22.684C1.83728 22.6504 1.56618 22.5063 1.53159 22.3643C1.4702 22.1125 1.06468 22.307 1.13592 21.9901C0.969018 21.8783 0.755963 21.7978 0.652358 21.6439C0.586609 21.5463 0.425567 21.4456 0.471178 21.2947C0.540399 21.0668 0.360596 20.9093 0.337679 20.7079C0.428883 20.6518 0.531074 20.6241 0.59509 20.5102C0.753326 20.2281 1.0499 19.9727 1.08123 19.684C1.1147 19.3766 1.43949 19.1981 1.35035 18.8707C1.33588 18.8179 1.42107 18.7289 1.47398 18.6691C1.80949 18.2894 1.83464 17.7481 2.15873 17.3636C2.36703 16.5869 2.84543 15.9127 3.01102 15.1197C3.38494 14.6316 3.44729 14.004 3.74289 13.4737C3.85758 13.2675 4.00591 13.0229 4.03762 12.7933C4.07535 12.5203 4.33086 12.3323 4.30788 12.1045C4.27867 11.8129 4.65911 11.6873 4.52274 11.3959C4.74233 11.1348 4.84346 10.8129 4.93535 10.4988C5.08587 9.98553 5.48104 9.56988 5.49968 9.00145C5.50402 8.86099 5.63012 8.70899 5.73339 8.59162C5.85091 8.45767 5.76238 8.29746 5.85034 8.14893C6.14555 7.64956 6.2514 7.0587 6.57963 6.57137C6.52475 6.19686 6.91727 6.00494 6.94936 5.66731C6.98149 5.32548 7.24016 5.10514 7.40654 4.84007C7.51639 4.66504 7.45485 4.45621 7.59017 4.29555C7.70661 4.15749 7.80505 3.99872 7.88293 3.83531C7.94486 3.70483 8.14729 3.66829 8.14343 3.5818C8.13742 3.44056 8.20215 3.35757 8.25746 3.25617C7.96422 2.80364 8.00625 2.35659 8.25442 1.89624C8.47676 1.48393 8.79471 1.13935 9.23789 1.06002C9.85672 0.949278 10.4769 0.768823 11.1228 0.850819C12.0157 0.96453 12.8968 1.12462 13.7745 1.33537C14.4829 1.50553 15.2015 1.64647 15.9117 1.8161C17.2246 2.1301 18.5354 2.4533 19.848 2.76897C20.7591 2.98779 21.6726 3.19754 22.5834 3.41804C22.8757 3.48893 23.1608 3.58985 23.4529 3.66192C23.962 3.78816 24.4777 3.89003 24.9843 4.02542C25.6748 4.21006 26.3624 4.40762 27.0449 4.62019C27.2345 4.67933 27.4085 4.70658 27.6058 4.68425C27.9015 4.65106 27.903 4.66525 28.0309 5.02226C27.9755 5.03747 27.9204 5.0526 27.8569 5.06977C27.9511 5.25973 28.0474 5.24837 28.1377 5.08896C28.2724 5.0489 28.3262 5.16773 28.4144 5.19611C28.4695 5.2814 28.3911 5.34353 28.38 5.41073C28.4423 5.56142 28.6123 5.56711 28.6982 5.68496C28.6393 5.82768 28.667 5.96314 28.7968 6.07963L28.0105 7.31464C27.9061 7.34089 27.7919 7.36964 27.6776 7.39839C27.7774 7.79458 27.7668 8.15359 27.37 8.39248C27.4514 8.54653 27.1815 8.55624 27.238 8.73938C27.265 8.82718 27.1231 8.99416 27.0226 9.08768C26.89 9.21074 27.0465 9.40916 26.8889 9.51049C26.7578 9.51925 26.8435 9.38351 26.7718 9.35663C26.4717 9.47556 26.7919 9.58853 26.781 9.70366C26.725 9.719 26.6697 9.73401 26.6178 9.74797C26.6259 9.80624 26.6332 9.86031 26.6404 9.91328C26.532 9.93751 26.4332 9.95945 26.3337 9.9817C26.2868 10.2795 26.2755 10.599 26.058 10.8302C25.8547 11.0461 25.9071 11.3474 25.7451 11.5815C25.5944 11.7987 25.3502 11.9896 25.4006 12.3164C25.4099 12.3765 25.3168 12.4496 25.2785 12.5206C25.1881 12.6879 25.0047 12.7751 24.9583 12.9961C24.9195 13.1815 24.7751 13.3586 24.6415 13.5071C24.4714 13.6958 24.5427 13.9548 24.3951 14.1572C24.2646 14.336 24.028 14.4996 24.1203 14.788C24.1243 14.8004 24.1026 14.8233 24.0896 14.8383C23.7053 15.2809 23.611 15.8785 23.2788 16.3517C23.1488 16.5369 22.9958 16.7096 22.9927 16.9853C22.9906 17.1713 22.7097 17.2734 22.6571 17.5121C22.6294 17.6369 22.6229 17.7784 22.5686 17.8944C22.521 17.9965 22.4836 18.149 22.3565 18.1677C22.1285 18.2009 22.3727 18.4356 22.2048 18.4786C22.235 18.7475 21.9483 18.8765 21.9246 19.1333C21.9017 19.3843 21.7302 19.5989 21.653 19.8285C21.457 20.4127 21.0818 20.9195 20.9507 21.5268C20.6651 21.6909 20.7074 22.0405 20.5269 22.2775C20.3471 22.5138 20.2 22.8294 20.1845 23.1182C20.1731 23.3279 19.9495 23.3247 19.9781 23.442C20.018 23.6067 19.8284 23.6731 19.8721 23.8285C19.9229 24.0086 19.7433 24.1067 19.6829 24.2493C19.6456 24.337 19.5613 24.398 19.5855 24.5186C19.6327 24.7537 19.4124 24.785 19.2652 24.8934Z" fill="#8548DA"/>
</svg>
