<svg width="32" height="30" viewBox="0 0 32 30" fill="none" xmlns="http://www.w3.org/2000/svg">
<path fill-rule="evenodd" clip-rule="evenodd" d="M4.47697 6.23437C4.16779 6.4625 3.95099 6.66797 3.82707 6.95966C3.79332 7.03948 3.74627 7.13063 3.84136 7.18754C3.88595 7.2144 4.0185 7.1868 4.01874 7.18163C4.02687 6.81381 4.62134 6.77144 4.47697 6.23437ZM26.2227 25.0674C26.266 25.1032 26.3091 25.1389 26.3522 25.1746C26.9344 24.7521 27.4187 24.2389 27.7974 23.625C27.5195 23.829 27.297 24.0874 27.0534 24.3239C26.7868 24.5821 26.5003 24.8203 26.2227 25.0674ZM9.57422 11.4408C10.1413 10.586 10.8412 9.81856 11.1408 8.82031C10.3123 9.51529 9.9711 10.5007 9.57422 11.4408ZM22.0317 17.4687C21.5032 18.1337 20.7457 18.6569 20.6562 19.6022C21.2729 18.995 21.8363 18.3537 22.0317 17.4687ZM5.17578 5.58148C6.47237 4.47311 7.97197 3.61873 9.15129 2.36328C7.65466 3.22135 6.23809 4.17945 5.17578 5.58148ZM25.4165 18.0039C24.1928 19.5781 23.0027 21.109 21.8125 22.6399C24.117 20.6809 25.2354 19.2187 25.4165 18.0039ZM5.65234 11.5426C5.71393 11.5017 5.79499 11.4785 5.811 11.4325C6.41606 9.70548 7.62692 8.44757 8.94544 7.24484C9.60026 6.64741 10.0346 5.84403 10.6081 4.97266C8.77816 5.5617 5.73241 9.70942 5.65234 11.5426ZM14.2094 30C7.28718 29.882 2.56421 25.9878 0.608846 19.7874C-0.512831 16.2299 -0.02627 12.7784 1.58911 9.51589C3.22076 6.22083 5.65455 3.58995 8.96785 1.90484C10.3519 1.20099 11.8355 0.686594 13.2929 0.136965C13.8613 -0.0773686 14.4646 -0.0246475 15.0626 0.187715C15.8213 0.457233 16.6292 0.569573 17.4281 0.542473C19.1994 0.482854 20.782 1.05047 22.2489 1.95313C23.2375 2.56189 24.3045 3.05387 25.1897 3.82448C27.9403 6.21935 29.8464 9.16532 30.9277 12.6457C31.3356 13.9575 31.1927 15.2985 31.0656 16.6249C30.9922 17.3891 30.6934 18.1447 30.5734 18.8776C30.48 19.4477 30.0144 19.8613 30.0513 20.2414C30.1065 20.8159 29.8715 21.1793 29.6402 21.5799C27.4633 25.3475 24.0527 27.4849 20.0346 28.8138C18.6114 29.2846 17.1684 29.6787 15.6856 29.9012C15.1126 29.9869 14.5257 29.9805 14.2094 30Z" fill="#556BBB"/>
</svg>
