<svg width="116" height="20" viewBox="0 0 116 20" fill="none" xmlns="http://www.w3.org/2000/svg">
<g clip-path="url(#clip0_632_536)">
<path d="M9.07088 1.27641C9.41462 0.459947 10.5854 0.459948 10.9291 1.27641L12.9579 6.0953C13.1029 6.4395 13.4306 6.67467 13.8067 6.70446L19.0727 7.12154C19.9649 7.19221 20.3267 8.2922 19.6469 8.86746L15.6348 12.2627C15.3482 12.5053 15.223 12.8858 15.3106 13.2484L16.5363 18.3251C16.744 19.1852 15.7969 19.8651 15.033 19.4042L10.5245 16.6836C10.2025 16.4893 9.7975 16.4893 9.47548 16.6836L4.96699 19.4042C4.20311 19.8651 3.25596 19.1852 3.46363 18.3251L4.68942 13.2484C4.77698 12.8858 4.65182 12.5053 4.36526 12.2627L0.353062 8.86746C-0.326718 8.2922 0.0350679 7.19221 0.927291 7.12154L6.19336 6.70446C6.5695 6.67467 6.89716 6.4395 7.04207 6.0953L9.07088 1.27641Z" fill="white"/>
<path d="M33.0709 1.27641C33.4146 0.459947 34.5854 0.459948 34.9291 1.27641L36.9579 6.0953C37.1029 6.4395 37.4306 6.67467 37.8067 6.70446L43.0727 7.12154C43.9649 7.19221 44.3267 8.2922 43.6469 8.86746L39.6348 12.2627C39.3482 12.5053 39.223 12.8858 39.3106 13.2484L40.5363 18.3251C40.744 19.1852 39.7969 19.8651 39.033 19.4042L34.5245 16.6836C34.2025 16.4893 33.7975 16.4893 33.4755 16.6836L28.967 19.4042C28.2031 19.8651 27.256 19.1852 27.4636 18.3251L28.6894 13.2484C28.777 12.8858 28.6518 12.5053 28.3653 12.2627L24.3531 8.86746C23.6733 8.2922 24.0351 7.19221 24.9273 7.12154L30.1934 6.70446C30.5695 6.67467 30.8972 6.4395 31.0421 6.0953L33.0709 1.27641Z" fill="white"/>
<path d="M57.0709 1.27641C57.4146 0.459947 58.5854 0.459948 58.9291 1.27641L60.9579 6.0953C61.1029 6.4395 61.4306 6.67467 61.8067 6.70446L67.0727 7.12154C67.9649 7.19221 68.3267 8.2922 67.6469 8.86746L63.6348 12.2627C63.3482 12.5053 63.223 12.8858 63.3106 13.2484L64.5363 18.3251C64.744 19.1852 63.7969 19.8651 63.033 19.4042L58.5245 16.6836C58.2025 16.4893 57.7975 16.4893 57.4755 16.6836L52.967 19.4042C52.2031 19.8651 51.256 19.1852 51.4636 18.3251L52.6894 13.2484C52.777 12.8858 52.6518 12.5053 52.3653 12.2627L48.3531 8.86746C47.6733 8.2922 48.0351 7.19221 48.9273 7.12154L54.1934 6.70446C54.5695 6.67467 54.8972 6.4395 55.0421 6.0953L57.0709 1.27641Z" fill="white"/>
<path d="M81.0709 1.27641C81.4146 0.459947 82.5854 0.459948 82.9291 1.27641L84.9579 6.0953C85.1029 6.4395 85.4306 6.67467 85.8067 6.70446L91.0727 7.12154C91.9649 7.19221 92.3267 8.2922 91.6469 8.86746L87.6348 12.2627C87.3482 12.5053 87.223 12.8858 87.3106 13.2484L88.5363 18.3251C88.744 19.1852 87.7969 19.8651 87.033 19.4042L82.5245 16.6836C82.2025 16.4893 81.7975 16.4893 81.4755 16.6836L76.967 19.4042C76.2031 19.8651 75.256 19.1852 75.4636 18.3251L76.6894 13.2484C76.777 12.8858 76.6518 12.5053 76.3653 12.2627L72.3531 8.86746C71.6733 8.2922 72.0351 7.19221 72.9273 7.12154L78.1934 6.70446C78.5695 6.67467 78.8972 6.4395 79.0421 6.0953L81.0709 1.27641Z" fill="white"/>
<path d="M105.071 1.27641C105.415 0.459947 106.585 0.459948 106.929 1.27641L108.958 6.0953C109.103 6.4395 109.431 6.67467 109.807 6.70446L115.073 7.12154C115.965 7.19221 116.327 8.2922 115.647 8.86746L111.635 12.2627C111.348 12.5053 111.223 12.8858 111.311 13.2484L112.536 18.3251C112.744 19.1852 111.797 19.8651 111.033 19.4042L106.525 16.6836C106.203 16.4893 105.797 16.4893 105.475 16.6836L100.967 19.4042C100.203 19.8651 99.256 19.1852 99.4636 18.3251L100.689 13.2484C100.777 12.8858 100.652 12.5053 100.365 12.2627L96.3531 8.86746C95.6733 8.2922 96.0351 7.19221 96.9273 7.12154L102.193 6.70446C102.569 6.67467 102.897 6.4395 103.042 6.0953L105.071 1.27641Z" fill="white"/>
</g>
<defs>
<clipPath id="clip0_632_536">
<rect width="116" height="18.8889" fill="white" transform="translate(0 0.664062)"/>
</clipPath>
</defs>
</svg>
