<svg width="140" height="56" viewBox="0 0 140 56" fill="none" xmlns="http://www.w3.org/2000/svg">
<path fill-rule="evenodd" clip-rule="evenodd" d="M41.9876 14.6265C43.0668 15.0737 44.0473 15.7291 44.8731 16.5553C45.6994 17.3812 46.3548 18.3617 46.8019 19.4409C47.2491 20.5201 47.4793 21.6768 47.4793 22.845C47.4793 24.0131 47.2491 25.1698 46.8019 26.249C46.3548 27.3282 45.6994 28.3088 44.8731 29.1346L32.5358 41.4719C31.4557 42.5521 29.7044 42.5521 28.6242 41.4719L16.2869 29.1346C14.6188 27.4665 13.6816 25.204 13.6816 22.845C13.6816 20.4859 14.6188 18.2234 16.2869 16.5553C17.955 14.8872 20.2174 13.9501 22.5765 13.9501C24.9356 13.9501 27.198 14.8872 28.8661 16.5553L30.58 18.2692L32.2939 16.5553C33.1197 15.7291 34.1002 15.0737 35.1794 14.6265C36.2586 14.1794 37.4154 13.9492 38.5835 13.9492C39.7517 13.9492 40.9084 14.1794 41.9876 14.6265ZM25.9348 23.6208C24.6734 25.5126 23.7375 27.4159 23.7375 29.4801C23.7375 32.521 25.4787 35.3801 27.9751 36.4892L28.8286 35.2746C29.8591 34.097 31.5304 34.0965 32.5613 35.2746L33.2587 36.0711C35.7551 34.9618 37.2869 32.3614 37.2869 29.4796C37.2869 25.9004 34.3479 23.5655 34.3479 23.5655C34.0526 23.2858 33.8069 23.3976 33.8059 23.8002C33.8059 23.8002 33.9911 27.2829 32.1601 27.2829C31.2275 27.2829 31.2109 26.3945 31.1868 25.103C31.1562 23.4629 31.1134 21.1728 29.1671 19.2266C28.4003 18.5692 28.0922 18.3052 27.9506 18.3756C27.6188 18.5407 28.2001 20.5412 25.9348 23.6208ZM34.0176 20.6749C33.3578 19.657 32.0781 19.0713 31.5133 19.1691C31.2692 19.2113 31.3418 19.2916 31.5301 19.5C31.7774 19.7737 32.2243 20.2683 32.4147 21.1873C32.7506 22.805 34.939 22.1454 34.0176 20.6749Z" fill="white"/>
<path d="M71.0748 24.0028C70.6013 23.1348 69.9503 22.4739 69.1217 22.0201C68.2931 21.5663 67.3264 21.3395 66.2216 21.3395C64.9984 21.3395 63.9134 21.6157 62.9664 22.1681C62.0194 22.7205 61.2796 23.5096 60.7469 24.5355C60.2142 25.5614 59.9479 26.7451 59.9479 28.0866C59.9479 29.4676 60.2142 30.6711 60.7469 31.697C61.2993 32.7229 62.0589 33.512 63.0256 34.0644C63.9923 34.6168 65.1168 34.893 66.3992 34.893C67.9774 34.893 69.2697 34.4787 70.2758 33.6501C71.282 32.8018 71.9429 31.6279 72.2586 30.1285H65.1563V26.9621H76.3424V30.5724C76.0662 32.0126 75.4743 33.3443 74.5668 34.5675C73.6593 35.7907 72.4854 36.7771 71.0452 37.5268C69.6248 38.2567 68.0268 38.6217 66.2512 38.6217C64.2586 38.6217 62.4534 38.1778 60.8357 37.29C59.2377 36.3825 57.975 35.1297 57.0478 33.5317C56.1403 31.9337 55.6865 30.1187 55.6865 28.0866C55.6865 26.0546 56.1403 24.2396 57.0478 22.6415C57.975 21.0238 59.2377 19.771 60.8357 18.8832C62.4534 17.9757 64.2487 17.522 66.2216 17.522C68.5496 17.522 70.5718 18.0941 72.2881 19.2384C74.0045 20.3629 75.1882 21.951 75.8393 24.0028H71.0748Z" fill="white"/>
<path d="M93.1682 29.8918C93.1682 30.4837 93.1288 31.0163 93.0499 31.4898H81.0648C81.1634 32.6735 81.5777 33.6008 82.3077 34.2716C83.0376 34.9423 83.9353 35.2777 85.0006 35.2777C86.5394 35.2777 87.6344 34.6168 88.2854 33.295H92.7539C92.2805 34.8733 91.3729 36.1754 90.0314 37.2013C88.6899 38.2074 87.0425 38.7105 85.0894 38.7105C83.5111 38.7105 82.0906 38.3652 80.828 37.6747C79.5851 36.9645 78.6085 35.9682 77.8983 34.6859C77.2078 33.4035 76.8626 31.9239 76.8626 30.2469C76.8626 28.5503 77.2078 27.0608 77.8983 25.7784C78.5888 24.496 79.5555 23.5096 80.7984 22.8191C82.0413 22.1286 83.4716 21.7834 85.0894 21.7834C86.6479 21.7834 88.0388 22.1187 89.262 22.7895C90.5049 23.4603 91.4617 24.4171 92.1325 25.66C92.823 26.8832 93.1682 28.2938 93.1682 29.8918ZM88.8773 28.7081C88.8575 27.6427 88.4728 26.7944 87.7232 26.1631C86.9735 25.5121 86.0561 25.1865 84.971 25.1865C83.9451 25.1865 83.0771 25.5022 82.3668 26.1335C81.6763 26.7451 81.2522 27.6033 81.0943 28.7081H88.8773Z" fill="white"/>
<path d="M103.798 21.8129C105.751 21.8129 107.329 22.4344 108.533 23.6773C109.736 24.9005 110.338 26.6169 110.338 28.8265V38.4442H106.195V29.3887C106.195 28.0866 105.869 27.0903 105.218 26.3998C104.567 25.6896 103.679 25.3345 102.555 25.3345C101.41 25.3345 100.503 25.6896 99.8322 26.3998C99.1812 27.0903 98.8556 28.0866 98.8556 29.3887V38.4442H94.7126V22.0497H98.8556V24.0916C99.408 23.3814 100.108 22.829 100.957 22.4344C101.825 22.0201 102.772 21.8129 103.798 21.8129Z" fill="white"/>
<path d="M117.03 34.9522H126.322V38.4442H112.236V35.2481L121.469 21.2803H112.236V17.7883H126.322V20.9843L117.03 34.9522Z" fill="white"/>
</svg>
