<svg width="140" height="60" viewBox="0 0 140 60" fill="none" xmlns="http://www.w3.org/2000/svg">
<path d="M50.6074 20.301V16.4531H69.967V20.301H62.4943V43.0774H58.1577V20.301H50.6074Z" fill="white"/>
<path d="M81.8257 39.5796L82.91 39.463L82.9872 42.6113C80.0447 43.2073 77.4374 43.5052 75.1659 43.5052C72.3007 43.5052 70.2358 42.7148 68.9711 41.1344C67.732 39.5536 67.1123 37.0272 67.1123 33.5551C67.1123 26.6626 69.9131 23.2163 75.5145 23.2163C80.9352 23.2163 83.6457 26.1832 83.6457 32.1169L83.3746 35.1487H71.3714C71.3974 36.755 71.7457 37.9342 72.417 38.6855C73.088 39.4371 74.3402 39.8127 76.1727 39.8127C78.0055 39.8127 79.8897 39.7349 81.8257 39.5796ZM79.5026 31.8838C79.5026 29.9664 79.1927 28.632 78.5733 27.8804C77.9796 27.1031 76.96 26.7144 75.5145 26.7144C74.0691 26.7144 73.0107 27.116 72.3394 27.9193C71.6941 28.7226 71.3586 30.044 71.3329 31.8838H79.5026Z" fill="white"/>
<path d="M85.7686 43.0776V23.6439H89.9501V25.9759C92.1441 24.5508 94.3384 23.6309 96.5324 23.2163V27.4529C94.3125 27.8934 92.4152 28.4635 90.8406 29.163L89.9889 29.513V43.0776H85.7686Z" fill="white"/>
<path d="M97.8223 43.0776V23.6439H102.004V25.9759C104.198 24.5508 106.392 23.6309 108.586 23.2163V27.4529C106.366 27.8934 104.469 28.4635 102.895 29.163L102.043 29.513V43.0776H97.8223Z" fill="white"/>
<path d="M124.203 29.6295V38.4914C124.229 39.0614 124.371 39.4889 124.629 39.774C124.913 40.033 125.339 40.2015 125.906 40.279L125.79 43.5052C123.571 43.5052 121.854 43.0258 120.641 42.0669C118.576 43.0258 116.498 43.5052 114.407 43.5052C110.561 43.5052 108.638 41.4453 108.638 37.3254C108.638 35.3559 109.154 33.9308 110.187 33.0498C111.245 32.1688 112.858 31.6375 115.026 31.4562L120.021 31.0287V29.6295C120.021 28.5929 119.789 27.8675 119.324 27.4529C118.885 27.0383 118.227 26.831 117.349 26.831C115.698 26.831 113.633 26.9346 111.154 27.1419L109.916 27.2197L109.76 24.2269C112.574 23.5532 115.156 23.2163 117.505 23.2163C119.879 23.2163 121.583 23.7345 122.615 24.771C123.674 25.7816 124.203 27.4011 124.203 29.6295ZM115.53 34.4489C113.749 34.6046 112.858 35.5762 112.858 37.3641C112.858 39.152 113.645 40.0459 115.22 40.0459C116.511 40.0459 117.879 39.8387 119.324 39.424L120.021 39.1908V34.0214L115.53 34.4489Z" fill="white"/>
<path fill-rule="evenodd" clip-rule="evenodd" d="M38.8949 14.2222C42.2641 14.2222 45.0752 16.6121 45.7253 19.7891C45.8182 20.243 45.867 20.713 45.867 21.1943V39.0429C45.867 42.8934 42.7454 46.015 38.8949 46.015H21.0463C20.284 46.015 19.5503 45.8926 18.8637 45.6667C16.0821 44.7505 14.0742 42.1313 14.0742 39.0429V21.1943C14.0742 17.3437 17.1957 14.2222 21.0463 14.2222H38.8949ZM36.067 16.4532H38.8949C41.2054 16.4532 43.13 18.1062 43.5506 20.2941C42.2089 20.4461 40.675 20.3053 39.0552 19.6111C37.6201 18.996 36.668 17.8563 36.067 16.4532ZM29.4471 16.4532H33.6848C34.3889 18.5726 35.7376 20.6166 38.1765 21.6618C40.1328 22.5002 41.9908 22.6947 43.6359 22.5314V24.811C41.4023 25.5181 39.1766 25.8043 37.3956 25.283C36.511 25.0241 35.4958 24.3367 34.4034 23.2553C33.3261 22.1887 32.251 20.8169 31.2359 19.3174C30.605 18.3855 30.0043 17.4149 29.4471 16.4532ZM26.8849 16.4532H23.9326C24.0671 18.9779 23.4723 22.0617 21.2594 25.1857C19.7934 27.2554 18.0597 28.3937 16.3053 28.9021V33.35C17.3624 32.708 18.607 31.8312 20.064 30.6473C23.5068 27.85 26.2185 26.737 28.2747 26.5334C30.3189 26.331 31.7722 27.0401 32.4122 27.9364C33.0843 28.8773 33.4642 30.1381 33.6072 31.4678C33.752 32.8137 33.6638 34.315 33.3242 35.8048C32.6495 38.7665 30.9364 41.8493 27.8502 43.5112C27.6821 43.6018 27.5125 43.6927 27.3416 43.7839H30.8095C32.1657 42.0621 33.2511 40.3514 33.6404 39.0108C34.0797 37.4973 34.2601 35.8929 34.4285 34.393L34.4288 34.3928V34.3922C34.4893 33.8537 34.5485 33.3283 34.6174 32.8254C34.737 31.9542 34.9021 31.0311 35.2566 30.3654C35.4442 30.0132 35.7424 29.6211 36.2221 29.3946C36.7271 29.1562 37.2528 29.1854 37.7138 29.3391C39.0062 29.77 40.7241 29.8592 43.6359 29.1297V27.1397C41.3903 27.7724 38.942 28.0603 36.7687 27.4243C35.3664 27.0138 34.0353 26.0303 32.8339 24.8408C31.6174 23.6365 30.4511 22.1376 29.3885 20.5682C28.4797 19.2257 27.6336 17.8119 26.8849 16.4532ZM43.6359 31.4243C40.8619 32.0593 38.867 32.0328 37.1797 31.5108C37.0551 31.8028 36.9388 32.3204 36.8278 33.1289C36.7726 33.5305 36.7215 33.987 36.666 34.4806C36.4937 36.0189 36.2809 37.9176 35.7828 39.6327C35.4013 40.9474 34.5758 42.3917 33.5947 43.7839H35.8391C36.2533 42.7543 36.6345 41.7737 36.934 40.9496C37.2559 40.0639 37.4572 39.4269 37.5222 39.1028C37.6452 38.4873 37.8797 37.825 38.43 37.3556C39.0023 36.867 39.705 36.7622 40.3635 36.7956C41.0119 36.8288 41.7721 37.0034 42.6297 37.2494C42.9415 37.3386 43.2767 37.4407 43.6359 37.5542V31.4243ZM43.5634 39.8737C42.9811 39.6846 42.4685 39.5242 42.0145 39.394C41.1859 39.1561 40.6301 39.0432 40.2503 39.0239C40.0048 39.0114 39.9056 39.0418 39.8771 39.0543C39.8609 39.0733 39.7817 39.1812 39.7101 39.5404C39.6074 40.053 39.3478 40.8395 39.031 41.7115C38.8037 42.3373 38.5334 43.0429 38.2409 43.7839H38.8949C41.23 43.7839 43.1707 42.0958 43.5634 39.8737ZM22.5277 43.7839C23.9888 43.0304 25.4635 42.2623 26.7924 41.5467C29.1445 40.2803 30.5688 37.8554 31.1489 35.3092C31.437 34.045 31.5056 32.792 31.389 31.7066C31.2705 30.6047 30.9707 29.7566 30.5967 29.2331C30.5398 29.1534 29.9711 28.6076 28.4944 28.7537C27.0297 28.8987 24.7214 29.7379 21.471 32.3789C19.4362 34.0322 17.7335 35.1647 16.3053 35.9135V38.4296C16.6574 38.1075 17.0549 37.8384 17.4223 37.6089C17.7966 37.3749 18.2044 37.1448 18.6053 36.92L18.7046 36.8642C19.079 36.6545 19.4506 36.4462 19.8196 36.2253C20.6269 35.7417 21.3527 35.2367 21.9108 34.6491C22.8772 33.6317 24.272 32.4177 25.5833 31.5889C26.2302 31.1797 26.9288 30.818 27.588 30.6521C28.2066 30.4962 29.1657 30.4329 29.8342 31.197C30.4703 31.9241 30.7339 33.0145 30.2707 34.4299C29.8306 35.7744 28.7254 37.4716 26.589 39.6793C24.3715 41.9706 22.1539 43.1185 20.2844 43.4844C20.0735 43.5257 19.8661 43.5569 19.6628 43.5789C20.1005 43.7122 20.565 43.7839 21.0463 43.7839H22.5277ZM16.3053 26.5416C17.3862 26.0932 18.4631 25.2736 19.4388 23.8961C21.3654 21.1762 21.831 18.5388 21.6984 16.4532H21.0463C18.4279 16.4532 16.3053 18.5759 16.3053 21.1943V26.5416ZM39.8749 39.0554C39.8696 39.0579 39.8673 39.0596 39.8676 39.0596C39.8679 39.0599 39.869 39.0593 39.871 39.0579L39.8724 39.0571L39.8749 39.0554ZM26.7753 33.4747C25.6518 34.1847 24.397 35.2713 23.5285 36.1857C22.7621 36.9925 21.8321 37.6206 20.966 38.1393C20.568 38.3775 20.1689 38.6011 19.799 38.8086L19.6965 38.8661C19.2911 39.0934 18.9277 39.2989 18.6047 39.5008C17.9083 39.9359 17.6173 40.2287 17.526 40.4158C17.4998 40.4697 17.4967 40.5003 17.5048 40.5472C17.5163 40.6141 17.5643 40.7683 17.7554 41.023L17.7739 41.0478L17.7911 41.0734C17.7922 41.0748 17.8173 41.1097 17.8971 41.1585C17.9796 41.209 18.1073 41.2659 18.2886 41.3105C18.6529 41.4003 19.1833 41.4262 19.856 41.2946C21.1936 41.033 23.02 40.159 24.9858 38.1276C27.0328 36.0125 27.8653 34.6058 28.1503 33.736C28.3199 33.2178 28.285 32.9373 28.2309 32.7939C28.2036 32.7989 28.1712 32.8059 28.133 32.8157C27.8108 32.8968 27.3458 33.1141 26.7753 33.4747ZM28.3508 32.7833C28.3503 32.7842 28.3436 32.7842 28.3324 32.7819C28.3455 32.7817 28.3514 32.7828 28.3508 32.7833Z" fill="white"/>
</svg>
