<svg width="140" height="66" viewBox="0 0 140 66" fill="none" xmlns="http://www.w3.org/2000/svg">
<path d="M73.1816 32.5827C72.5435 33.2031 72.2247 34.1071 72.2247 35.2947V42.7124H67.9707V28.1427H71.3473V32.9507C71.5088 31.5783 71.9167 30.4719 72.5703 29.6316C73.4564 28.5149 74.7326 27.9565 76.3986 27.9565H76.9571V31.6256H75.8937C74.7239 31.6256 73.8198 31.9447 73.1816 32.5827Z" fill="white"/>
<path fill-rule="evenodd" clip-rule="evenodd" d="M86.0762 40.9312C86.2589 40.6214 86.4094 40.2795 86.5283 39.9056V42.7124H89.9049V33.7791C89.9049 32.432 89.6389 31.3331 89.1072 30.4823C88.5755 29.6138 87.7955 28.9668 86.7676 28.5414C85.7574 28.116 84.5076 27.9033 83.0189 27.9033C82.5045 27.9033 81.9551 27.9122 81.3702 27.9299C80.7853 27.9476 80.2181 27.9742 79.6687 28.0097C79.1192 28.0451 78.6408 28.0806 78.2328 28.116V31.7053C78.7823 31.6698 79.394 31.6344 80.0676 31.5989C80.7411 31.5635 81.397 31.5369 82.0351 31.5192C82.6732 31.5015 83.1872 31.4926 83.577 31.4926C84.357 31.4926 84.9242 31.6787 85.2785 32.0509C85.6332 32.4232 85.8102 32.9815 85.8102 33.726V33.7791H83.1781C81.8842 33.7791 80.7411 33.9475 79.7483 34.2843C78.7559 34.6033 77.9849 35.1085 77.4355 35.7998C76.886 36.4733 76.6113 37.3418 76.6113 38.4052C76.6113 39.3803 76.8328 40.2222 77.2759 40.9312C77.7189 41.6226 78.3306 42.1543 79.1102 42.5263C79.9079 42.8984 80.8298 43.0848 81.8755 43.0848C82.8857 43.0848 83.7366 42.8984 84.4279 42.5263C85.137 42.1543 85.6864 41.6226 86.0762 40.9312ZM85.3849 39.0169C85.6332 38.609 85.7751 38.042 85.8102 37.3152V36.1454H83.1517C82.4072 36.1454 81.831 36.3315 81.4234 36.7037C81.0336 37.0582 80.8385 37.5457 80.8385 38.166C80.8385 38.7509 81.0336 39.2294 81.4234 39.6018C81.831 39.9562 82.4072 40.1335 83.1517 40.1335C83.6302 40.1335 84.0555 40.0539 84.4279 39.8943C84.8177 39.7169 85.137 39.4245 85.3849 39.0169Z" fill="white"/>
<path d="M98.7258 43.2184C97.4673 43.2184 96.3684 43.0146 95.4288 42.6067C94.5073 42.1814 93.736 41.6143 93.1156 40.9052C92.4952 40.1961 92.0345 39.3988 91.7333 38.5124C91.4318 37.6084 91.2812 36.6779 91.2812 35.7207V35.2156C91.2812 34.223 91.4409 33.2747 91.7597 32.3708C92.079 31.4491 92.5484 30.6337 93.1688 29.9247C93.7892 29.2157 94.5605 28.6574 95.482 28.2497C96.4213 27.842 97.4937 27.6382 98.699 27.6382C100.011 27.6382 101.172 27.8952 102.182 28.4092C103.192 28.9055 103.999 29.6057 104.602 30.5096C105.204 31.4136 105.541 32.4505 105.612 33.6203H101.437C101.367 32.9645 101.101 32.4151 100.64 31.9719C100.197 31.5111 99.5499 31.2807 98.699 31.2807C97.9899 31.2807 97.3963 31.4579 96.9179 31.8124C96.4567 32.1669 96.1111 32.6543 95.8809 33.2747C95.6503 33.8951 95.5352 34.6307 95.5352 35.4815C95.5352 36.2614 95.6416 36.9704 95.8541 37.6084C96.0669 38.2288 96.4039 38.7161 96.8646 39.0709C97.3431 39.4075 97.9635 39.5758 98.7258 39.5758C99.293 39.5758 99.7714 39.4784 100.161 39.2833C100.569 39.0709 100.888 38.7871 101.119 38.4327C101.367 38.0604 101.517 37.6351 101.571 37.1564H105.718C105.665 38.3618 105.328 39.4252 104.708 40.3471C104.087 41.2509 103.263 41.9599 102.235 42.4739C101.207 42.9701 100.037 43.2184 98.7258 43.2184Z" fill="white"/>
<path fill-rule="evenodd" clip-rule="evenodd" d="M110.485 42.5803C111.442 43.0056 112.541 43.2184 113.781 43.2184C115.004 43.2184 116.086 43.0056 117.025 42.5803C117.964 42.155 118.744 41.5611 119.365 40.7988C119.985 40.0369 120.402 39.1682 120.615 38.1934H116.706C116.529 38.6365 116.192 39.0086 115.696 39.3101C115.2 39.6112 114.561 39.7622 113.781 39.7622C112.931 39.7622 112.24 39.5848 111.708 39.2301C111.176 38.8758 110.786 38.3795 110.538 37.7414C110.4 37.3757 110.3 36.9768 110.238 36.5449H120.88V35.1092C120.88 33.7799 120.597 32.5569 120.029 31.4402C119.462 30.3058 118.638 29.3929 117.557 28.7017C116.494 27.9927 115.182 27.6382 113.622 27.6382C112.434 27.6382 111.371 27.8509 110.432 28.2763C109.51 28.684 108.739 29.2423 108.118 29.9513C107.498 30.6603 107.02 31.4668 106.683 32.3708C106.364 33.257 106.204 34.1875 106.204 35.1624V35.6941C106.204 36.6336 106.364 37.5553 106.683 38.4592C107.02 39.3456 107.498 40.152 108.118 40.8788C108.757 41.5878 109.545 42.155 110.485 42.5803ZM110.271 34.1255C110.337 33.7443 110.435 33.3987 110.564 33.0886C110.831 32.4328 111.22 31.9365 111.734 31.5997C112.248 31.2629 112.878 31.0946 113.622 31.0946C114.349 31.0946 114.951 31.2629 115.43 31.5997C115.926 31.9188 116.298 32.3884 116.547 33.0088C116.681 33.3447 116.779 33.7169 116.841 34.1255H110.271Z" fill="white"/>
<path d="M57.8412 42.7129V27.1062H52.3906V23.3042H67.6782V27.1062H62.2012V42.7129H57.8412Z" fill="white"/>
<path fill-rule="evenodd" clip-rule="evenodd" d="M32.5247 21.9705C26.4614 21.9705 21.5461 26.8857 21.5461 32.949C21.5461 39.0123 26.4614 43.9277 32.5247 43.9277C38.588 43.9277 43.5031 39.0123 43.5031 32.949C43.5031 26.8857 38.588 21.9705 32.5247 21.9705ZM19.1064 32.949C19.1064 25.5383 25.114 19.5308 32.5247 19.5308C39.9352 19.5308 45.9427 25.5383 45.9427 32.949C45.9427 40.3598 39.9352 46.3674 32.5247 46.3674C25.114 46.3674 19.1064 40.3598 19.1064 32.949Z" fill="white"/>
<path fill-rule="evenodd" clip-rule="evenodd" d="M39.2186 28.3993C39.5764 27.2729 38.5081 26.215 37.3852 26.5834L29.7362 29.0932C29.2935 29.2385 28.9475 29.5878 28.8065 30.0319L26.4365 37.4977C26.0789 38.6242 27.1471 39.682 28.27 39.3137L35.9189 36.8038C36.3617 36.6585 36.7076 36.3093 36.8486 35.8651L39.2186 28.3993ZM32.8262 34.6911C33.7886 34.6911 34.5688 33.9109 34.5688 32.9485C34.5688 31.986 33.7886 31.2059 32.8262 31.2059C31.8638 31.2059 31.0835 31.986 31.0835 32.9485C31.0835 33.9109 31.8638 34.6911 32.8262 34.6911Z" fill="white"/>
</svg>
