<svg width="114" height="30" viewBox="0 0 114 30" fill="none" xmlns="http://www.w3.org/2000/svg">
<path d="M36.8075 12.0688C36.8075 10.0216 34.8224 7.84991 31.3808 7.84991C27.5144 7.84991 23.2736 10.6804 22.6172 16.3365C21.9548 22.0548 25.5149 24.5815 29.092 24.5815C32.6679 24.5815 34.5504 23.1882 36.4622 21.3204C34.8115 19.2414 32.6825 20.2089 32.2799 20.4114C31.8346 20.6346 31.2502 20.9433 30.0631 20.9433C28.6772 20.9433 27.2717 20.3163 27.2717 17.7432C36.1316 16.894 36.8075 14.1172 36.8075 12.0688ZM32.4166 12.4116C32.3592 13.0424 32.1005 14.1343 27.617 14.7346C28.5625 11.377 30.3657 11.1282 31.199 11.1282C31.9798 11.1282 32.4776 11.7333 32.4166 12.4116ZM17.4101 12.957C17.4101 12.957 15.5045 18.9327 15.3568 19.4342C15.3056 18.9327 13.9111 8.19888 13.9111 8.19888C10.6658 8.19888 8.92966 10.5048 8.01466 12.9546C8.01466 12.9546 5.69656 18.9474 5.50868 19.4488C5.49773 18.9791 5.15243 13.0168 5.15243 13.0168C4.95601 10.0203 2.22071 8.20616 0.00390625 8.20616L2.66968 24.468C6.07478 24.457 7.89751 22.1548 8.85893 19.7099C8.85893 19.7099 10.8976 14.4222 10.9818 14.1819C11.0025 14.4113 12.4483 24.468 12.4483 24.468C15.8558 24.468 17.6944 22.3122 18.6839 19.9551L23.4652 8.20616C20.0979 8.20616 18.3251 10.506 17.4101 12.957ZM49.3226 7.82793C47.2278 7.82793 45.6137 8.96628 44.2546 10.6487L44.257 10.6365L45.4649 0.865234C42.6758 0.865234 40.3968 3.29313 39.9637 6.89463L37.8421 24.3411C39.4513 24.3411 41.1557 23.8739 42.0755 22.6917C42.8991 23.7494 44.1228 24.5925 45.9345 24.5925C50.6378 24.5925 53.8709 19.1255 53.8709 13.9928C53.8709 9.30911 51.5918 7.82793 49.3226 7.82793ZM48.8907 16.2096C48.4027 19.0791 46.8081 21.0141 45.2635 21.0141C43.7068 21.0141 43.0492 20.326 43.0492 20.326C43.3395 17.8176 43.5323 16.2792 44.0996 14.9542C44.6657 13.6293 46.0041 11.5149 47.4047 11.5149C48.7662 11.5149 49.3787 13.3413 48.8907 16.2096ZM65.6613 8.20743H62.3684L62.3843 8.03538C62.6087 5.88566 63.1236 4.75713 64.7902 4.58388C65.9285 4.46681 66.4433 3.87506 66.5629 3.23576C66.6569 2.73431 66.9752 0.961609 66.9752 0.961609C60.37 0.923809 58.2996 3.77501 57.7713 8.10858L57.7591 8.20616L57.6944 8.20863C56.622 8.20863 55.4447 9.42258 55.2385 10.9647L55.1666 11.532H57.3626L55.5191 26.7934L54.9604 29.536L55.1873 29.5434C58.2703 29.4262 60.2541 26.9947 60.6921 23.4542L62.1317 11.532H63.1639C64.1741 11.532 65.3612 10.5194 65.5808 8.82716L65.6613 8.20743ZM82.7492 7.92439C78.9549 7.92439 75.3789 10.717 74.2794 15.1104C73.1814 19.5025 74.8509 24.6888 80.4272 24.6888C86.0057 24.6888 89.2104 19.2828 89.2104 14.7944C89.2104 10.3034 86.1752 7.92439 82.7492 7.92439ZM84.2874 16.0791C84.0909 18.0714 83.2127 21.0812 80.8119 21.0812C78.4007 21.0812 78.7434 17.5492 78.9767 15.8729C79.2272 14.0757 80.2367 11.532 82.3854 11.532C84.3264 11.532 84.5094 13.8293 84.2874 16.0791ZM107.948 12.957C107.948 12.957 106.042 18.9327 105.896 19.4342C105.843 18.9327 104.449 8.19888 104.449 8.19888C101.204 8.19888 99.4681 10.5048 98.5524 12.9546C98.5524 12.9546 96.2357 18.9474 96.0474 19.4488C96.0362 18.9791 95.6911 13.0168 95.6911 13.0168C95.4946 10.0203 92.7579 8.20616 90.5424 8.20616L93.2072 24.468C96.6122 24.457 98.4361 22.1548 99.3977 19.7099C99.3977 19.7099 101.436 14.4222 101.52 14.1819C101.541 14.4113 102.986 24.468 102.986 24.468C106.394 24.468 108.232 22.3122 109.221 19.9551L114.004 8.20616C110.636 8.20616 108.863 10.506 107.948 12.957ZM68.7602 0.961609L65.9956 23.259L65.9882 23.2553L65.427 26.0126L65.6528 26.0199C68.6296 25.9833 70.7415 23.3712 71.1392 20.0771L72.7359 7.27893C73.2204 3.38096 70.8965 0.961609 68.7602 0.961609Z" fill="white"/>
</svg>
