<svg width="140" height="35" viewBox="0 0 140 35" fill="none" xmlns="http://www.w3.org/2000/svg">
<g clip-path="url(#clip0_2521_948)">
<path d="M138.035 31.8973C138.121 31.8982 138.207 31.8815 138.286 31.8482C138.365 31.815 138.437 31.7659 138.496 31.704C138.556 31.6422 138.601 31.5689 138.631 31.4887C138.661 31.4084 138.674 31.323 138.669 31.2377C138.669 30.7699 138.384 30.5464 137.801 30.5464H136.859V32.9956H137.214V31.928H137.649L137.659 31.941L138.335 32.9956H138.714L137.987 31.9041L138.035 31.8973ZM137.626 31.652H137.215V30.824H137.735C138.004 30.824 138.311 30.8676 138.311 31.2174C138.311 31.6198 138.001 31.652 137.623 31.652" fill="white"/>
<path d="M0.00390625 5.11865H5.23381V24.0388H14.9159V28.8323H0.00390625V5.11865Z" fill="white"/>
<path d="M17.2292 12.7537H22.2534V28.8234H17.2292V12.7537ZM19.7413 4.76465C20.3177 4.76475 20.8811 4.93461 21.3604 5.25274C21.8396 5.57088 22.2131 6.023 22.4336 6.55194C22.6541 7.08089 22.7118 7.6629 22.5992 8.22438C22.4867 8.78585 22.2091 9.30159 21.8015 9.70636C21.3938 10.1111 20.8745 10.3868 20.3092 10.4984C19.7438 10.6101 19.1578 10.5527 18.6253 10.3336C18.0927 10.1145 17.6376 9.74349 17.3173 9.26748C16.9971 8.79146 16.8262 8.23182 16.8262 7.65933C16.8262 7.27915 16.9016 6.9027 17.0481 6.55146C17.1946 6.20023 17.4093 5.8811 17.68 5.6123C17.9507 5.34349 18.2721 5.13029 18.6258 4.98484C18.9794 4.8394 19.3585 4.76458 19.7413 4.76465Z" fill="white"/>
<path d="M43.2686 5.11475H48.2928V19.2867L53.9869 12.7462H60.1468L53.5525 20.1859L60.0081 28.8299H53.6933L48.3598 20.8866H48.2938V28.8289H43.2696L43.2686 5.11475Z" fill="white"/>
<path d="M25.0381 12.7555H29.8629V14.9516H29.9315C30.4134 14.1316 31.1105 13.457 31.9484 12.9998C32.7863 12.5426 33.7335 12.32 34.6888 12.3558C39.7837 12.3558 40.7215 15.685 40.7215 20.0101V28.8226H35.6973V21.0097C35.6973 19.1447 35.6627 16.7474 33.0805 16.7474C30.4689 16.7474 30.066 18.7782 30.066 20.874V28.8205H25.0417L25.0381 12.7555Z" fill="white"/>
<path d="M70.7278 18.9181C70.7374 18.5133 70.6642 18.1108 70.5126 17.7349C70.3609 17.359 70.134 17.0176 69.8456 16.7313C69.5572 16.4451 69.2133 16.22 68.8347 16.0696C68.4561 15.9193 68.0508 15.8468 67.6432 15.8566C66.7653 15.8024 65.9012 16.0929 65.237 16.6656C64.5728 17.2383 64.1619 18.0473 64.0927 18.9181H70.7278ZM74.9838 26.0392C74.1489 27.0447 73.0993 27.8533 71.911 28.4062C70.7227 28.9592 69.4254 29.2428 68.1132 29.2364C63.0889 29.2364 59.0664 25.9056 59.0664 20.7478C59.0664 15.59 63.0884 12.2607 68.1132 12.2607C72.8092 12.2607 75.7541 15.5874 75.7541 20.7478V22.3123H64.0927C64.2379 23.1996 64.7011 24.005 65.3969 24.5799C66.0927 25.1548 66.9743 25.4606 67.8792 25.4409C68.5943 25.4365 69.297 25.2546 69.9232 24.9116C70.5494 24.5686 71.0794 24.0755 71.4647 23.4772L74.9838 26.0392Z" fill="white"/>
<path d="M86.2265 16.636C83.7144 16.636 82.2071 18.3019 82.2071 20.7293C82.2071 23.1567 83.7138 24.8242 86.2265 24.8242C88.7391 24.8242 90.2495 23.1609 90.2495 20.7293C90.2495 18.2978 88.7417 16.636 86.2265 16.636ZM94.875 28.8182H90.2495V26.6871H90.181C89.6007 27.4622 88.848 28.0939 87.9817 28.5328C87.1153 28.9717 86.1586 29.206 85.1861 29.2174C80.3586 29.2174 77.1787 25.7572 77.1787 20.8639C77.1787 16.3699 79.9928 12.2433 84.6187 12.2433C86.698 12.2433 88.6402 12.8083 89.7796 14.3744H89.8455V5.11133H94.8744L94.875 28.8182Z" fill="white"/>
<path d="M128.793 28.8292H123.769V21.0147C123.769 19.1513 123.736 16.7525 121.156 16.7525C118.539 16.7525 118.139 18.7828 118.139 20.8791V28.8287H113.115V12.759H117.938V14.9551H118.005C118.488 14.1354 119.186 13.4611 120.024 13.004C120.862 12.5469 121.809 12.3241 122.764 12.3593C127.856 12.3593 128.795 15.6859 128.795 20.0136L128.793 28.8292ZM107.446 10.5624C106.869 10.5625 106.305 10.3928 105.826 10.0747C105.346 9.75656 104.972 9.30437 104.752 8.77529C104.531 8.2462 104.473 7.66398 104.585 7.10225C104.698 6.54051 104.975 6.0245 105.383 5.61945C105.791 5.2144 106.31 4.93852 106.876 4.82668C107.441 4.71485 108.027 4.77209 108.56 4.99117C109.093 5.21024 109.549 5.58131 109.869 6.05745C110.189 6.5336 110.361 7.09343 110.361 7.66615C110.361 8.04642 110.285 8.42298 110.139 8.77433C109.992 9.12568 109.778 9.44494 109.507 9.71388C109.236 9.98282 108.915 10.1962 108.561 10.3418C108.208 10.4873 107.828 10.5623 107.446 10.5624ZM109.958 28.8292H104.928V12.759H109.958V28.8292ZM131.298 0.13706H102.404C101.748 0.12971 101.116 0.381252 100.647 0.836413C100.177 1.29157 99.9094 1.91311 99.9014 2.56445V31.3808C99.9091 32.0325 100.177 32.6544 100.646 33.1101C101.115 33.5657 101.747 33.8177 102.404 33.8108H131.298C131.955 33.819 132.589 33.5677 133.06 33.1121C133.531 32.6564 133.801 32.0338 133.81 31.3808V2.56238C133.801 1.90974 133.531 1.2875 133.06 0.832347C132.589 0.377197 131.955 0.126373 131.298 0.13498" fill="white"/>
<path d="M137.669 29.4565C137.058 29.4624 136.474 29.7084 136.044 30.1408C135.615 30.5732 135.376 31.1568 135.379 31.7639C135.382 32.371 135.627 32.9523 136.06 33.3805C136.493 33.8088 137.08 34.0493 137.691 34.0493C138.302 34.0493 138.889 33.8088 139.322 33.3805C139.755 32.9523 140 32.371 140.003 31.7639C140.006 31.1568 139.767 30.5732 139.338 30.1408C138.909 29.7084 138.325 29.4624 137.713 29.4565H137.669ZM137.669 33.7863C137.268 33.793 136.874 33.6814 136.537 33.4657C136.2 33.2499 135.935 32.9398 135.775 32.5744C135.616 32.2091 135.569 31.8049 135.64 31.4131C135.712 31.0212 135.899 30.6593 136.178 30.373C136.457 30.0868 136.815 29.889 137.207 29.8048C137.598 29.7206 138.007 29.7538 138.38 29.9C138.753 30.0463 139.074 30.2991 139.302 30.6265C139.53 30.9539 139.656 31.3412 139.662 31.7394C139.662 31.7509 139.662 31.7618 139.662 31.7732C139.674 32.2956 139.475 32.801 139.111 33.1783C138.748 33.5557 138.248 33.774 137.722 33.7853H137.669" fill="white"/>
</g>
<defs>
<clipPath id="clip0_2521_948">
<rect width="140" height="33.9555" fill="white" transform="translate(0.00390625 0.137695)"/>
</clipPath>
</defs>
</svg>
