<svg width="72" height="77" viewBox="0 0 72 77" fill="none" xmlns="http://www.w3.org/2000/svg">
<path fill-rule="evenodd" clip-rule="evenodd" d="M38.2318 64.0108C35.4573 62.5368 32.9972 61.1387 30.6596 59.5353C32.0637 61.2561 35.9684 63.5879 38.2318 64.0108ZM33.1964 28.5614C44.2639 34.2741 55.2366 40.1607 65.9501 46.5183C55.5355 39.6168 44.4415 33.9513 33.1964 28.5614ZM12.3319 21.7295C12.0673 22.2223 12.1412 22.7183 12.2252 23.1878C12.4954 24.7024 12.7154 26.2333 13.112 27.7156C14.3916 32.4989 16.0133 37.1611 18.3464 41.5477C20.9155 46.3781 23.8777 50.958 27.6481 54.9336C31.2869 58.7705 35.5139 61.7961 40.7016 63.2378C41.7379 63.5258 42.8038 63.7309 43.908 63.6077C46.7451 63.2912 49.0073 61.7997 51.2303 60.1649C55.3596 57.128 59.0083 53.5517 62.7378 50.0642C63.0977 49.7276 63.3585 49.4567 62.7621 49.0252C60.6968 47.53 58.3317 46.4725 56.4169 44.7754C55.5604 44.016 54.5306 43.8329 53.5462 43.4455C52.2866 42.9499 51.4699 41.8014 50.241 41.1858C49.0214 40.575 47.8955 39.7469 46.6919 39.0669C46.3184 38.8557 45.8387 39.1926 45.634 38.7519C45.1642 37.7419 44.1992 37.6741 43.3032 37.5053C42.8404 37.418 42.3929 37.3237 42.1913 36.8765C42.032 36.5227 41.7025 36.4521 41.4617 36.2425C40.3122 35.2449 38.7792 35.2234 37.4728 34.6112C34.9408 33.424 32.683 31.7605 30.0646 30.6951C28.0869 29.8903 26.1463 28.8875 24.3215 27.674C22.7079 26.6005 20.6972 26.112 19.1178 25.0011C17.0183 23.5248 14.4708 23.1256 12.3319 21.7295ZM25.2764 24.8075C26.1602 25.612 27.2843 25.9007 28.379 26.2688C27.8093 25.8105 27.128 25.5219 26.5794 25.0717C26.1357 24.7078 25.7529 24.6531 25.2692 24.8396C24.1855 23.9199 22.9161 23.3778 21.5592 23.016C22.7193 23.776 23.9172 24.4599 25.2764 24.8075ZM51.4046 65.6415C49.8397 66.7271 48.306 67.845 46.5369 68.6115C45.7344 68.96 44.895 69.1159 44.0724 69.3301C41.3483 70.0405 38.7352 69.5386 36.2475 68.3481C34.894 67.7 33.5931 66.9389 32.2889 66.1928C31.9248 65.9842 31.3974 65.8457 31.4825 65.2213C31.493 65.1434 31.3943 64.9956 31.3154 64.9683C29.2851 64.2693 27.679 63.0828 25.7606 61.1473C23.3002 58.6663 21.2502 55.8587 19.2684 53.015C17.5188 50.5048 16.0687 47.8021 14.7064 45.0408C12.9309 41.4426 11.6276 37.6747 10.5617 33.8548C9.71168 30.8087 9.0231 27.6978 8.96532 24.4327C8.91976 21.8595 9.25194 19.6255 10.8461 17.6219C11.6957 16.5546 12.7221 16.3435 13.4995 17.384C14.8863 19.2416 16.909 19.8635 18.8595 20.729C26.9651 24.325 34.9956 28.0788 42.8664 32.1729C50.7345 36.2652 58.5477 40.4503 66.103 45.1021C66.6469 45.437 67.2053 45.7601 67.7025 46.1566C68.2638 46.6041 68.8645 47.0814 68.2161 47.9287C67.8815 48.366 68.3189 48.8642 68.1129 49.4213C67.5963 50.8218 66.7041 51.8987 65.6678 52.8855C62.1609 56.2267 58.7714 59.6948 55.0562 62.8116C53.8775 63.8006 52.6238 64.7007 51.4046 65.6415Z" fill="#1C1C57"/>
</svg>
