<svg width="60" height="61" viewBox="0 0 60 61" fill="none" xmlns="http://www.w3.org/2000/svg">
<path d="M33.018 53.4775C33.018 53.6505 32.9493 53.8164 32.827 53.9387C32.7047 54.061 32.5388 54.1297 32.3658 54.1297H27.4533C27.2803 54.1297 27.1144 54.061 26.9921 53.9387C26.8698 53.8164 26.8011 53.6505 26.8011 53.4775C26.8011 53.3046 26.8698 53.1387 26.9921 53.0164C27.1144 52.8941 27.2803 52.8254 27.4533 52.8254H32.3658C32.5388 52.8254 32.7047 52.8941 32.827 53.0164C32.9493 53.1387 33.018 53.3046 33.018 53.4775ZM60 48.5616V56.0596C60 58.5457 57.9773 60.5682 55.4913 60.5682H41.3328C39.6427 60.5682 38.1674 59.6329 37.3957 58.253H21.1553C17.8805 58.253 15.2163 55.5888 15.2163 52.3141V34.2304H11.7625C11.5895 34.2304 11.4236 34.1617 11.3013 34.0394C11.179 33.9171 11.1103 33.7512 11.1103 33.5783V17.5326H4.62248C2.07352 17.5326 0 15.4589 0 12.9101V5.19071C0 2.64188 2.07352 0.568359 4.62235 0.568359H18.9023C21.4512 0.568359 23.5248 2.64188 23.5248 5.19071V9.08184H38.6635C40.6539 9.08184 42.5077 10.0984 43.6015 11.7321L51.0514 4.28223C51.1737 4.15993 51.3396 4.09122 51.5125 4.09122C51.6855 4.09122 51.8514 4.15993 51.9737 4.28223L54.9102 7.21858C54.9707 7.27912 55.0188 7.35099 55.0516 7.4301C55.0844 7.50921 55.1012 7.594 55.1012 7.67964C55.1013 7.76527 55.0844 7.85007 55.0516 7.92918C55.0189 8.0083 54.9709 8.08019 54.9103 8.14075L44.6027 18.4485V39.5785H48.412C48.585 39.5785 48.7509 39.6472 48.8732 39.7696C48.9955 39.8919 49.0642 40.0577 49.0642 40.2307V44.0532H55.4913C57.9773 44.053 60 46.0756 60 48.5616ZM44.6027 40.8826V44.053H47.7599V40.8826H44.6027ZM35.248 21.9301L34.333 24.8592L37.2622 23.9442L53.5269 7.67953L51.5127 5.66562L35.248 21.9301ZM35.3489 25.9084L33.534 26.4753C33.4204 26.5109 33.2993 26.5146 33.1837 26.4862C33.0681 26.4577 32.9626 26.3982 32.8784 26.314C32.7943 26.2298 32.7347 26.1243 32.7063 26.0087C32.6778 25.8931 32.6816 25.772 32.7171 25.6584L33.3785 23.5411C32.3645 22.8222 31.1525 22.4356 29.9096 22.4346C26.8238 22.4346 24.275 24.7778 23.9489 27.7784H35.8701C35.799 27.1309 35.623 26.4993 35.3489 25.9084ZM29.9095 21.1302C31.3401 21.1302 32.504 19.9664 32.504 18.5358C32.504 17.1051 31.3401 15.9413 29.9095 15.9413C28.479 15.9413 27.3151 17.1051 27.3151 18.5358C27.3151 19.9664 28.4789 21.1302 29.9095 21.1302ZM4.62235 16.2282H18.9023C20.732 16.2282 22.2205 14.7397 22.2205 12.9102V5.19071C22.2205 3.36123 20.732 1.87271 18.9023 1.87271H4.62235C2.79287 1.87271 1.30435 3.36123 1.30435 5.19071V12.9101C1.30435 14.7396 2.79287 16.2282 4.62235 16.2282ZM15.2163 32.9261V17.5326H12.4147V32.9262H15.2163V32.9261ZM21.0061 35.3145V34.2304H16.5205V49.1155H36.8241V48.5616C36.8241 46.0755 38.8466 44.053 41.3327 44.053H43.2982V40.8826H38.8127V41.9667C38.8127 42.1396 38.744 42.3055 38.6217 42.4278C38.4994 42.5501 38.3335 42.6188 38.1605 42.6188H21.6583C21.4853 42.6188 21.3195 42.5501 21.1971 42.4278C21.0748 42.3055 21.0061 42.1396 21.0061 41.9667V38.4942C21.0061 38.3213 21.0748 38.1554 21.1971 38.0331C21.3195 37.9108 21.4853 37.8421 21.6583 37.8421H38.1607C38.2463 37.8421 38.3311 37.8589 38.4102 37.8917C38.4894 37.9245 38.5612 37.9725 38.6218 38.0331C38.6824 38.0936 38.7304 38.1655 38.7632 38.2447C38.796 38.3238 38.8128 38.4086 38.8128 38.4942V39.5784H43.2983V19.7527L38.071 24.98C37.9965 25.0546 37.905 25.1099 37.8043 25.1414L36.6034 25.5165C37.0031 26.436 37.2095 27.4278 37.2098 28.4304C37.2098 28.6034 37.1411 28.7693 37.0188 28.8916C36.8965 29.0139 36.7306 29.0826 36.5576 29.0826H23.2613C23.0884 29.0826 22.9225 29.0139 22.8002 28.8916C22.6779 28.7693 22.6092 28.6034 22.6092 28.4304C22.6092 25.2679 24.6309 22.5697 27.4495 21.5577C26.5722 20.8421 26.0107 19.7534 26.0107 18.5356C26.0107 16.3859 27.7597 14.6368 29.9093 14.6368C32.059 14.6368 33.8082 16.3858 33.8082 18.5356C33.8082 19.7534 33.2467 20.8422 32.3692 21.5577C32.864 21.7346 33.3383 21.9642 33.7839 22.2427L34.0509 21.3878C34.0824 21.2872 34.1377 21.1958 34.2123 21.1212L42.6548 12.6787C41.8246 11.2738 40.3042 10.3859 38.6636 10.3859H23.5248V12.91C23.5248 15.4588 21.4512 17.5323 18.9023 17.5323H16.5205V32.926H21.0061V31.8418C21.0061 31.6688 21.0748 31.5029 21.1971 31.3806C21.3195 31.2583 21.4853 31.1896 21.6583 31.1896H38.1607C38.3336 31.1896 38.4995 31.2583 38.6218 31.3806C38.7441 31.5029 38.8128 31.6688 38.8128 31.8418V35.3142C38.8128 35.4872 38.7441 35.6531 38.6218 35.7754C38.4995 35.8977 38.3336 35.9664 38.1607 35.9664H21.6583C21.5727 35.9664 21.4879 35.9496 21.4087 35.9169C21.3296 35.8841 21.2577 35.8361 21.1972 35.7756C21.1366 35.715 21.0886 35.6431 21.0558 35.564C21.023 35.4849 21.0061 35.4001 21.0061 35.3145ZM37.5085 34.6623V32.4942H22.3105V34.6623H37.5085ZM22.3105 39.1464V41.3145H37.5085V39.1464H22.3105ZM36.9127 56.9488C36.8538 56.6561 36.8242 56.3583 36.8242 56.0597V50.42H16.5206V52.3142C16.5206 54.8698 18.5997 56.9488 21.1553 56.9488H36.9127ZM58.6957 48.5616C58.6957 46.7947 57.2581 45.3573 55.4913 45.3573H41.3328C39.566 45.3573 38.1286 46.7948 38.1286 48.5616V56.0596C38.1286 57.8265 39.5661 59.2639 41.3328 59.2639H55.4913C57.2581 59.264 58.6957 57.8265 58.6957 56.0597V48.5616ZM17.8277 6.00149H5.69726C5.52429 6.00149 5.35841 6.0702 5.2361 6.19251C5.1138 6.31481 5.04509 6.4807 5.04509 6.65366C5.04509 6.82663 5.1138 6.99251 5.2361 7.11482C5.35841 7.23713 5.52429 7.30584 5.69726 7.30584H17.8277C18.0007 7.30584 18.1665 7.23713 18.2889 7.11482C18.4112 6.99251 18.4799 6.82663 18.4799 6.65366C18.4799 6.4807 18.4112 6.31481 18.2889 6.19251C18.1665 6.0702 18.0007 6.00149 17.8277 6.00149ZM17.8277 10.795H5.69726C5.52429 10.795 5.35841 10.8637 5.2361 10.986C5.1138 11.1083 5.04509 11.2742 5.04509 11.4471C5.04509 11.6201 5.1138 11.786 5.2361 11.9083C5.35841 12.0306 5.52429 12.0993 5.69726 12.0993H17.8277C18.0007 12.0993 18.1665 12.0306 18.2889 11.9083C18.4112 11.786 18.4799 11.6201 18.4799 11.4471C18.4799 11.2742 18.4112 11.1083 18.2889 10.986C18.1665 10.8637 18.0007 10.795 17.8277 10.795ZM54.4773 54.0551H42.3468C42.1739 54.0551 42.008 54.1238 41.8857 54.2461C41.7634 54.3684 41.6947 54.5343 41.6947 54.7073C41.6947 54.8802 41.7634 55.0461 41.8857 55.1684C42.008 55.2907 42.1739 55.3594 42.3468 55.3594H54.4773C54.6502 55.3594 54.8161 55.2907 54.9384 55.1684C55.0607 55.0461 55.1294 54.8802 55.1294 54.7073C55.1294 54.5343 55.0607 54.3684 54.9384 54.2461C54.8161 54.1238 54.6502 54.0551 54.4773 54.0551ZM54.4773 49.2616H42.3468C42.1739 49.2616 42.008 49.3303 41.8857 49.4526C41.7634 49.5749 41.6947 49.7408 41.6947 49.9138C41.6947 50.0868 41.7634 50.2526 41.8857 50.375C42.008 50.4973 42.1739 50.566 42.3468 50.566H54.4773C54.6502 50.566 54.8161 50.4973 54.9384 50.375C55.0607 50.2526 55.1294 50.0868 55.1294 49.9138C55.1294 49.7408 55.0607 49.5749 54.9384 49.4526C54.8161 49.3303 54.6502 49.2616 54.4773 49.2616Z" fill="url(#paint0_linear_551_243)"/>
<defs>
<linearGradient id="paint0_linear_551_243" x1="0" y1="30.7811" x2="66.5074" y2="30.7811" gradientUnits="userSpaceOnUse">
<stop stop-color="#8548DA"/>
<stop offset="0.375222" stop-color="#4C85F4"/>
<stop offset="0.651028" stop-color="#556BBB"/>
<stop offset="1" stop-color="#CC0F97"/>
</linearGradient>
</defs>
</svg>
